<?xml version="1.0" standalone="no"?>
<!DOCTYPE svg PUBLIC "-//W3C//DTD SVG 20010904//EN"
 "http://www.w3.org/TR/2001/REC-SVG-20010904/DTD/svg10.dtd">
<svg version="1.0" xmlns="http://www.w3.org/2000/svg"
 width="1259.000000pt" height="1280.000000pt" viewBox="0 0 1259.000000 1280.000000"
 preserveAspectRatio="xMidYMid meet">
<metadata>
Created by potrace 1.15, written by Peter Selinger 2001-2017
</metadata>
<g transform="translate(0.000000,1280.000000) scale(0.100000,-0.100000)"
fill="#000000" stroke="none">
<path d="M1376 12784 c-94 -30 -229 -139 -241 -196 -4 -16 -13 -32 -21 -35
-10 -4 -14 -18 -12 -47 3 -46 -11 -60 -28 -27 -6 12 -14 24 -17 27 -13 13 -89
-41 -143 -101 -32 -37 -74 -75 -94 -85 -20 -10 -42 -26 -49 -34 -8 -9 -24 -16
-36 -16 -12 0 -56 -24 -96 -54 -41 -29 -101 -67 -134 -84 -33 -16 -78 -42
-100 -58 -22 -15 -62 -33 -89 -40 -40 -11 -60 -25 -118 -89 -39 -42 -83 -82
-97 -90 -32 -16 -87 -119 -97 -182 -10 -67 31 -253 57 -253 5 0 9 -7 9 -15 0
-28 52 -37 230 -41 96 -2 180 -4 186 -4 6 0 35 -33 63 -74 28 -41 55 -76 60
-78 4 -2 37 -43 71 -93 35 -49 74 -101 86 -115 13 -14 30 -45 39 -70 21 -61
69 -143 122 -212 24 -31 62 -88 86 -127 23 -38 78 -123 123 -188 45 -65 106
-161 136 -213 30 -52 105 -171 165 -265 115 -177 173 -279 173 -301 0 -7 6
-17 13 -21 8 -4 30 -36 50 -70 20 -35 58 -91 84 -125 27 -35 70 -101 97 -148
91 -156 197 -310 226 -325 15 -8 35 -25 44 -39 9 -15 24 -26 33 -26 9 0 25 -8
35 -17 13 -12 41 -19 88 -21 60 -4 71 -2 86 17 25 28 50 26 98 -6 39 -27 39
-28 14 -31 -18 -2 -28 -11 -32 -27 -3 -13 -26 -41 -51 -63 -45 -39 -60 -82
-30 -82 18 0 20 -21 3 -38 -18 -18 -53 -15 -72 7 -16 18 -18 17 -64 -6 -26
-13 -51 -29 -57 -36 -5 -7 -22 -17 -36 -24 -15 -6 -57 -34 -95 -61 -38 -28
-84 -53 -103 -57 -18 -4 -41 -15 -51 -25 -10 -10 -33 -25 -52 -34 -18 -9 -62
-41 -98 -72 -36 -31 -101 -73 -145 -94 -44 -21 -94 -53 -112 -71 l-32 -34 73
-127 c40 -69 86 -143 102 -165 40 -51 54 -74 120 -194 30 -56 82 -140 115
-188 64 -91 178 -278 291 -476 40 -70 87 -138 114 -162 43 -42 117 -147 129
-183 8 -25 17 -27 187 -44 80 -8 159 -21 175 -29 15 -8 53 -20 83 -27 30 -6
67 -20 81 -30 14 -10 46 -24 70 -31 24 -7 52 -21 62 -31 27 -28 85 -24 98 6
15 32 57 62 106 75 22 6 52 20 66 31 14 11 30 20 36 20 6 0 40 27 76 60 36 32
82 65 100 72 19 6 35 15 35 20 0 4 35 25 78 48 42 22 110 65 151 95 40 30 89
59 108 64 20 6 43 16 52 24 9 8 46 20 84 27 37 7 83 20 103 30 48 25 52 10 25
-80 -16 -53 -32 -81 -65 -115 -47 -50 -60 -53 -130 -29 -26 9 -50 13 -54 10
-14 -14 -3 -79 17 -100 12 -12 21 -28 21 -34 0 -17 50 -15 71 4 9 8 55 22 100
31 46 9 91 22 99 28 8 7 33 18 55 25 22 7 57 23 77 37 38 26 68 25 68 0 0 -18
-48 -89 -66 -100 -8 -4 -14 -24 -14 -43 0 -41 -15 -74 -34 -74 -8 0 -19 -6
-25 -14 -7 -8 -43 -16 -90 -20 -92 -8 -117 -22 -108 -58 9 -35 49 -50 152 -55
114 -7 158 5 224 62 42 36 60 45 90 45 24 0 44 -7 54 -18 21 -23 22 -52 3 -52
-8 0 -18 -9 -21 -21 -9 -27 -64 -89 -80 -89 -6 0 -22 -9 -34 -19 -13 -11 -48
-25 -79 -31 -133 -25 -150 -37 -143 -100 6 -49 27 -60 116 -60 68 0 86 4 105
20 13 11 28 20 33 20 6 0 25 12 44 26 48 37 92 31 115 -16 9 -19 20 -52 23
-72 6 -34 5 -38 -13 -38 -12 0 -29 -12 -39 -26 -47 -67 -58 -75 -118 -87 -47
-9 -62 -17 -74 -38 -12 -22 -12 -29 2 -55 9 -16 21 -39 26 -51 16 -35 49 -28
116 22 90 67 196 117 242 113 l38 -3 -1 -47 c0 -30 -7 -54 -17 -66 -9 -10 -17
-25 -17 -33 0 -8 -18 -33 -40 -54 -22 -21 -40 -44 -40 -51 0 -6 -21 -17 -46
-23 -39 -10 -48 -17 -64 -54 -21 -46 -26 -117 -10 -148 17 -31 46 -22 86 27
21 25 56 55 78 66 23 11 55 32 71 46 17 14 57 37 90 52 45 20 68 38 88 69 19
29 33 41 43 37 9 -3 17 -6 19 -6 10 0 46 -73 42 -84 -3 -8 -19 -17 -36 -21
-47 -10 -40 -35 9 -35 22 0 40 -4 40 -10 0 -5 -16 -10 -36 -10 -48 0 -104 -53
-104 -99 0 -39 -16 -74 -42 -90 -11 -7 -52 -16 -91 -20 -55 -6 -74 -12 -88
-30 -34 -42 -25 -78 34 -138 69 -68 93 -70 126 -8 27 52 80 102 122 117 17 6
29 18 31 31 2 18 9 22 36 20 56 -2 65 -17 60 -103 -8 -127 -35 -156 -151 -171
-39 -5 -75 -13 -81 -19 -19 -19 7 -64 48 -84 39 -19 40 -19 75 1 20 11 61 26
91 33 30 7 65 22 78 34 23 21 24 21 38 2 30 -42 11 -186 -29 -207 -11 -7 -28
-21 -37 -32 -19 -23 -36 -17 -114 45 -27 21 -54 37 -60 35 -24 -9 -7 -65 38
-126 28 -39 46 -74 46 -90 0 -15 7 -36 15 -47 9 -12 14 -43 15 -85 0 -76 7
-85 69 -95 57 -9 99 -45 107 -92 11 -63 62 -146 121 -197 82 -71 109 -114 123
-196 11 -63 15 -71 43 -86 18 -8 36 -22 40 -29 10 -18 56 -18 63 0 3 8 33 19
72 26 37 7 78 20 92 29 14 9 38 22 54 28 74 33 212 167 221 216 9 48 -9 79
-100 167 -89 87 -105 117 -105 200 l0 60 -70 0 c-58 0 -74 4 -91 21 -16 16
-20 28 -15 53 4 17 12 62 19 100 11 66 11 69 -12 87 -16 13 -39 19 -75 19 -29
0 -57 5 -64 12 -8 8 -12 51 -12 129 0 134 5 129 -108 129 -44 0 -64 4 -68 14
-3 8 2 68 10 134 9 66 16 123 16 126 0 3 -24 6 -52 6 -29 0 -70 3 -92 7 l-38
6 6 68 c12 119 -18 176 -116 218 -67 29 -75 49 -48 128 34 100 15 133 -75 136
-29 1 -49 -4 -63 -16 -24 -22 -107 -25 -143 -7 -34 18 -69 51 -69 66 0 13 30
34 48 34 5 0 14 -11 20 -24 12 -27 38 -36 70 -25 21 8 22 14 22 114 0 156 -19
191 -110 202 -28 3 -61 13 -72 22 -29 24 -29 84 1 115 38 41 5 94 -67 105
l-37 6 -3 74 c-2 45 2 78 9 87 9 11 8 20 -5 39 -17 26 -22 28 -71 25 -50 -2
-80 31 -110 120 -31 93 -62 135 -105 144 -21 4 -36 16 -48 38 -9 18 -32 48
-51 66 -38 37 -36 56 8 78 12 6 27 18 34 26 7 9 34 18 61 21 56 6 103 40 76
57 -27 17 -1 23 40 10 37 -12 42 -12 63 8 20 19 56 40 180 103 20 11 37 23 37
28 0 5 13 13 28 19 16 5 82 43 148 85 66 41 139 84 162 96 23 12 42 25 42 29
0 5 16 16 36 25 19 10 59 35 89 57 29 22 84 56 122 76 37 20 98 54 136 76 119
69 200 85 262 52 17 -9 71 -20 120 -24 65 -6 104 -15 140 -34 30 -15 88 -31
143 -40 51 -8 99 -20 106 -26 8 -6 49 -17 92 -25 44 -8 95 -22 114 -30 20 -8
99 -19 180 -25 80 -5 155 -13 168 -16 29 -8 104 -109 152 -204 37 -73 47 -90
121 -195 19 -27 43 -70 53 -95 10 -25 24 -52 31 -60 7 -8 27 -43 44 -77 17
-34 44 -77 60 -95 15 -18 43 -62 61 -98 18 -36 53 -92 78 -126 25 -34 69 -103
98 -155 29 -52 59 -102 68 -111 9 -10 16 -22 16 -27 0 -5 16 -28 34 -50 19
-23 54 -76 77 -119 23 -42 57 -98 76 -124 18 -25 39 -61 45 -79 6 -18 33 -67
60 -109 26 -41 48 -80 48 -86 0 -6 13 -25 29 -41 16 -17 36 -55 45 -84 16 -54
28 -71 118 -187 26 -33 60 -84 76 -113 56 -106 227 -397 329 -562 26 -43 64
-96 84 -118 20 -22 39 -53 43 -70 3 -17 35 -70 71 -117 36 -48 78 -112 92
-142 15 -30 41 -75 57 -100 24 -35 31 -55 30 -90 0 -52 -28 -107 -58 -116 -11
-4 -42 -21 -68 -38 -25 -17 -73 -46 -105 -64 -33 -18 -83 -51 -112 -73 -29
-22 -71 -47 -94 -56 -23 -9 -51 -23 -62 -32 -11 -9 -36 -24 -55 -33 -19 -9
-61 -39 -93 -67 -32 -28 -66 -51 -77 -51 -10 0 -40 -17 -67 -39 -27 -21 -65
-46 -84 -56 -19 -10 -43 -25 -54 -35 -11 -10 -38 -23 -60 -30 -116 -36 -303
-169 -339 -242 -8 -16 -26 -26 -61 -33 -28 -5 -75 -25 -105 -42 -30 -18 -59
-33 -64 -33 -5 0 -24 -11 -41 -24 -18 -14 -44 -28 -59 -32 -15 -3 -31 -15 -37
-25 -5 -10 -26 -28 -47 -39 -40 -22 -154 -100 -189 -129 -12 -10 -42 -23 -67
-30 -25 -6 -46 -16 -46 -21 0 -6 -20 -19 -45 -30 -25 -11 -45 -24 -45 -30 0
-5 -16 -16 -35 -24 -19 -8 -35 -21 -35 -29 0 -15 -31 -30 -84 -42 -15 -3 -51
-23 -80 -44 -28 -21 -70 -48 -93 -60 -24 -12 -43 -25 -43 -30 0 -5 -13 -14
-29 -21 -16 -6 -31 -20 -34 -31 -4 -13 -14 -19 -34 -19 -28 0 -48 -9 -148 -66
-96 -55 -117 -69 -177 -117 -33 -26 -66 -47 -73 -47 -7 0 -44 -24 -81 -53 -38
-30 -101 -72 -141 -95 -39 -23 -101 -67 -137 -98 -36 -31 -114 -82 -173 -113
-128 -67 -133 -76 -115 -183 16 -89 30 -119 65 -136 18 -9 27 -21 27 -37 0
-28 20 -75 32 -75 4 0 8 -7 8 -15 0 -9 12 -34 26 -56 14 -23 34 -61 44 -84 10
-24 25 -47 33 -52 7 -4 24 -29 37 -55 13 -26 49 -82 81 -125 33 -43 59 -82 59
-86 0 -5 13 -27 29 -50 15 -23 34 -59 40 -79 16 -50 95 -156 126 -170 14 -6
26 -16 26 -22 6 -52 12 -73 43 -133 50 -100 168 -274 214 -315 22 -20 64 -43
93 -53 30 -10 64 -26 77 -36 13 -10 37 -21 54 -24 17 -4 32 -15 35 -24 5 -18
128 -101 150 -101 7 0 13 -5 13 -11 0 -5 17 -17 38 -26 20 -8 56 -33 80 -54
65 -60 131 -78 151 -40 6 10 24 24 40 29 16 6 34 20 40 31 7 11 29 25 52 31
27 7 43 18 46 31 3 10 9 19 13 19 5 0 25 15 44 34 26 24 36 42 36 64 0 24 4
30 15 26 8 -4 15 -15 15 -25 0 -11 9 -21 24 -25 32 -8 62 -1 58 14 -1 7 9 17
23 22 14 5 58 34 97 64 40 29 116 80 168 112 52 32 114 73 137 91 23 18 50 33
61 33 11 0 25 6 31 14 7 8 33 22 58 30 25 9 55 26 67 38 12 13 43 38 70 56 29
20 46 38 43 46 -6 15 22 29 78 41 17 3 41 17 55 29 14 13 38 27 54 30 16 4 43
18 59 32 16 13 34 24 41 24 7 0 21 9 31 20 10 11 26 20 35 20 10 0 37 16 61
35 24 19 49 35 55 35 6 0 23 11 38 25 15 14 33 25 40 25 7 0 30 13 51 30 20
16 46 32 58 36 12 3 45 23 72 44 28 21 73 48 100 60 28 12 54 28 59 37 4 8 23
21 42 29 19 8 34 18 34 23 0 5 17 16 38 24 21 8 44 22 51 31 8 9 24 16 38 16
14 0 36 12 51 29 15 16 41 36 57 44 17 8 58 38 93 66 35 28 69 51 76 51 8 0
19 7 26 16 8 8 30 22 49 30 20 8 56 36 81 63 39 41 52 49 96 55 29 3 62 15 75
25 13 10 42 28 64 40 22 11 83 52 135 91 52 38 108 72 125 76 16 4 35 14 42
23 6 9 47 34 91 56 54 27 81 46 81 58 1 9 6 17 12 17 6 0 30 16 53 35 45 37
120 74 149 75 9 0 31 14 49 30 17 17 37 30 44 30 7 0 18 9 24 20 6 11 21 22
35 26 13 3 31 14 40 24 10 11 39 26 66 35 27 9 49 21 49 26 0 5 19 18 43 28
23 10 55 34 70 54 18 24 45 42 84 57 31 11 69 32 85 45 17 14 42 25 59 25 19
0 29 5 29 15 0 9 8 18 18 22 38 13 138 81 179 121 34 34 59 48 109 62 36 10
75 27 88 39 12 11 30 21 39 21 9 0 22 9 30 20 7 11 29 26 48 34 19 8 46 23 60
34 14 12 38 24 52 27 15 4 27 11 27 17 0 5 15 15 33 23 17 8 52 28 77 45 25
16 50 30 55 30 6 0 16 9 22 20 7 10 29 22 49 26 20 4 46 17 57 30 11 13 33 26
49 29 16 4 37 15 46 24 9 10 39 24 65 31 35 9 51 20 57 36 11 29 45 52 123 84
74 31 99 62 105 133 4 49 1 57 -26 88 -16 19 -41 61 -54 95 -14 33 -42 84 -62
114 -21 30 -40 66 -43 81 -3 15 -18 36 -33 47 -32 24 -70 97 -70 135 0 17 -9
32 -24 42 -13 9 -27 27 -30 40 -3 12 -24 46 -46 73 -57 73 -118 175 -159 267
-20 44 -48 100 -62 125 -15 25 -37 65 -49 90 -13 25 -42 71 -66 102 -24 31
-44 61 -44 67 0 6 -36 49 -80 95 -44 47 -80 90 -80 96 0 5 -12 10 -26 10 -25
0 -25 2 -19 40 6 38 4 43 -28 73 -32 31 -93 57 -131 57 -15 0 -15 -2 0 -25 16
-25 16 -25 -15 -25 -33 0 -34 3 -45 83 -7 56 -37 109 -73 132 -19 12 -52 55
-84 110 -92 158 -255 399 -297 440 -27 25 -38 43 -32 50 13 15 -26 94 -97 202
-33 48 -78 120 -101 158 -59 101 -63 106 -118 120 l-49 12 -6 80 c-7 91 -37
167 -98 248 -21 27 -64 97 -96 155 -32 58 -68 117 -80 132 -13 15 -29 43 -35
63 -6 19 -16 35 -21 35 -5 0 -14 12 -20 27 -5 14 -25 47 -43 72 -19 25 -61 94
-94 152 -33 58 -97 163 -142 234 -45 70 -85 138 -90 150 -4 12 -28 50 -53 86
-54 78 -152 246 -161 276 -4 11 -13 24 -21 27 -8 3 -23 23 -34 44 -11 21 -56
95 -99 163 -44 68 -112 183 -152 254 -82 147 -141 240 -210 335 -26 36 -51 79
-54 95 -4 17 -36 66 -72 110 -90 110 -179 245 -199 302 -9 26 -36 87 -61 134
-24 48 -44 98 -44 112 0 13 16 48 35 76 19 28 35 59 35 69 0 10 -25 50 -55 88
-60 75 -110 157 -200 331 -66 128 -110 185 -166 214 -21 10 -39 22 -39 25 0 3
7 19 16 35 14 27 14 32 1 42 -9 7 -37 55 -65 107 -69 134 -159 276 -193 304
-19 17 -29 34 -29 53 0 17 -18 55 -44 94 -24 36 -65 105 -92 154 -26 50 -48
91 -50 93 -1 2 -59 7 -130 12 -70 5 -149 17 -175 25 -40 14 -96 16 -356 13
-353 -3 -321 4 -453 -108 -47 -39 -113 -85 -147 -101 -35 -17 -63 -34 -63 -38
0 -5 -17 -16 -39 -24 -21 -9 -41 -23 -44 -31 -4 -9 -15 -16 -26 -16 -12 0 -28
-11 -37 -25 -9 -14 -37 -32 -66 -42 -28 -10 -67 -33 -88 -50 -21 -18 -61 -45
-89 -60 -112 -62 -210 -124 -224 -143 -7 -11 -29 -26 -49 -34 -19 -8 -40 -22
-48 -30 -7 -9 -20 -16 -29 -16 -10 0 -28 -12 -42 -26 -13 -14 -37 -33 -54 -41
-16 -8 -56 -35 -87 -59 -31 -25 -73 -51 -93 -59 -19 -9 -35 -19 -35 -24 0 -6
-10 -13 -22 -17 -12 -4 -45 -21 -73 -38 -78 -49 -88 -55 -119 -74 -16 -9 -51
-34 -78 -56 -28 -21 -85 -60 -128 -86 -42 -26 -95 -59 -116 -74 -21 -14 -44
-26 -51 -26 -7 0 -20 -8 -30 -19 -10 -10 -35 -24 -56 -30 -20 -7 -42 -21 -47
-32 -6 -10 -16 -19 -23 -19 -7 0 -36 -16 -64 -35 -29 -19 -56 -35 -61 -35 -5
0 -21 -11 -36 -23 -15 -13 -70 -48 -122 -78 -53 -29 -132 -82 -177 -117 -45
-34 -112 -83 -148 -107 -37 -25 -72 -52 -79 -60 -7 -8 -20 -15 -29 -15 -9 0
-24 -9 -34 -20 -9 -11 -26 -20 -36 -20 -11 0 -48 -23 -83 -51 -35 -28 -83 -60
-108 -71 -25 -11 -49 -26 -53 -34 -4 -8 -16 -14 -26 -14 -9 0 -33 -12 -52 -26
-19 -14 -51 -34 -72 -45 -21 -11 -66 -40 -99 -65 -33 -24 -72 -47 -87 -50 -14
-4 -35 -12 -46 -19 -50 -30 -105 -23 -105 13 0 10 11 33 25 52 14 19 25 47 25
63 0 36 -50 142 -93 199 -18 24 -36 50 -39 58 -3 8 -52 87 -108 175 -57 88
-120 197 -141 243 -21 46 -54 102 -73 125 -18 23 -53 78 -77 122 -23 44 -62
107 -85 140 -23 33 -51 79 -62 101 -12 23 -43 66 -70 95 -62 68 -102 127 -102
150 0 26 -76 169 -109 204 -15 16 -49 62 -73 100 -25 39 -61 93 -80 120 -47
67 -283 463 -299 500 -7 17 -25 46 -40 65 -31 41 -51 83 -74 158 -14 49 -15
58 -1 100 11 32 17 100 19 210 2 90 8 167 13 172 5 4 18 10 29 12 35 6 30 55
-12 127 -47 79 -99 134 -155 162 -56 28 -156 34 -222 13z m70 -89 c26 -17 32
-45 10 -45 -7 0 -19 6 -26 14 -6 8 -26 16 -43 18 -22 2 -33 9 -35 22 -4 17 0
18 33 13 20 -3 48 -13 61 -22z m-148 -47 c-20 -28 -23 -30 -26 -14 -3 11 4 26
14 33 31 23 36 14 12 -19z m382 -137 c0 -26 -17 -36 -35 -21 -23 19 -18 40 10
40 18 0 25 -5 25 -19z m-405 -11 c4 -6 1 -17 -5 -25 -7 -9 -16 -30 -19 -48
-10 -47 -36 -43 -35 6 2 50 41 95 59 67z m-104 -197 c7 -8 14 -25 15 -38 1
-13 14 -41 28 -62 21 -31 24 -39 11 -41 -8 -2 -27 6 -41 17 -20 16 -41 21 -88
21 -47 1 -57 3 -43 11 14 8 16 14 6 25 -9 11 -7 14 15 14 16 0 26 6 26 14 0 8
4 26 9 40 11 27 40 27 62 -1z m-303 -19 c-4 -20 -34 -41 -44 -31 -8 8 24 47
38 47 5 0 8 -7 6 -16z m102 -39 c20 -24 4 -45 -34 -45 l-35 0 17 30 c19 33 33
37 52 15z m308 -12 c-4 -22 -22 -20 -26 1 -2 10 3 16 13 16 10 0 15 -7 13 -17z
m212 -8 c0 -18 -5 -25 -20 -25 -20 0 -28 28 -13 43 15 16 33 6 33 -18z m-46
-103 c3 -5 -11 -16 -30 -26 -20 -9 -38 -25 -41 -36 -3 -10 -11 -21 -19 -24 -8
-3 -14 -15 -14 -26 0 -27 -16 -26 -24 3 -10 39 -7 67 8 67 8 0 28 11 43 25 28
24 67 33 77 17z m-871 -52 c-3 -11 -9 -20 -14 -20 -10 0 -12 33 -3 43 12 12
22 -3 17 -23z m336 -3 c14 -18 5 -26 -20 -20 -20 5 -24 15 -12 26 10 10 19 8
32 -6z m-159 -51 c0 -22 -49 -76 -70 -76 -9 0 -20 25 -20 46 0 23 38 54 65 54
20 0 25 -5 25 -24z m144 -21 c-6 -23 -3 -25 27 -25 41 1 112 25 117 40 2 5 16
10 32 10 24 0 28 -5 33 -35 9 -52 -25 -100 -85 -120 -25 -9 -52 -22 -58 -30
-6 -7 -31 -20 -55 -28 -44 -16 -62 -28 -118 -84 -22 -21 -47 -34 -75 -39 -26
-4 -42 -12 -42 -20 0 -8 -5 -14 -11 -14 -6 0 -25 -11 -41 -26 -17 -14 -44 -28
-59 -31 l-29 -6 35 -38 c21 -23 32 -45 29 -54 -9 -23 -22 -18 -40 16 -15 29
-19 31 -56 26 -22 -3 -50 -14 -61 -25 -18 -16 -27 -18 -47 -10 -59 22 -120
109 -120 170 0 39 48 127 86 157 15 12 45 26 68 33 22 6 50 20 62 30 37 33 75
23 151 -38 46 -38 53 -40 53 -20 0 9 17 16 47 21 55 8 110 34 137 64 16 18 17
25 8 47 -16 34 -15 54 3 54 11 0 14 -7 9 -25z m376 -15 c0 -14 -40 -37 -77
-44 -47 -8 -41 11 10 34 47 22 67 25 67 10z m43 -194 c8 -8 17 -34 21 -57 9
-58 23 -79 51 -79 18 0 26 7 31 25 10 41 27 23 41 -41 18 -88 16 -168 -4 -193
-10 -11 -61 -44 -113 -72 -103 -55 -133 -77 -124 -90 10 -16 42 -9 72 16 16
13 48 29 71 34 24 5 53 19 65 30 12 12 29 21 38 21 9 0 22 10 30 22 11 16 20
20 41 14 45 -11 67 -41 67 -90 0 -49 -8 -58 -64 -76 -23 -7 -41 -20 -43 -31
-3 -11 -17 -22 -32 -25 -56 -12 -128 -64 -116 -84 10 -16 65 -12 71 5 3 8 21
17 39 21 18 3 42 16 53 29 42 48 189 60 219 19 21 -29 13 -87 -14 -99 -13 -5
-23 -15 -23 -22 0 -7 -42 -37 -93 -68 -104 -61 -140 -91 -134 -108 6 -21 45
-19 64 2 9 12 28 21 40 21 12 0 37 13 56 30 42 37 77 50 130 50 52 0 110 -37
125 -78 11 -31 -8 -104 -29 -111 -6 -2 -19 -11 -28 -20 -9 -9 -34 -23 -56 -32
-22 -8 -60 -29 -84 -45 -24 -16 -62 -41 -85 -55 -22 -14 -41 -32 -41 -40 0
-20 62 -24 83 -6 10 8 33 20 53 26 19 6 62 34 95 62 32 28 74 57 92 65 17 8
32 18 32 23 0 11 55 22 75 15 10 -4 12 -11 6 -22 -11 -19 -2 -51 32 -118 l26
-51 -32 -30 c-44 -41 -140 -103 -161 -103 -20 0 -96 -67 -96 -85 0 -25 41 -28
69 -6 14 11 40 27 58 35 17 8 55 33 83 55 59 47 97 52 148 21 49 -30 59 -60
38 -114 -19 -49 -92 -118 -136 -129 -14 -4 -54 -25 -88 -48 -49 -33 -60 -45
-51 -55 17 -21 76 -17 96 6 10 11 23 20 30 20 7 0 27 13 45 29 42 36 71 51 99
51 12 0 31 7 41 17 17 15 19 15 36 0 10 -10 25 -17 33 -17 25 0 79 -60 79 -87
0 -13 -7 -37 -15 -52 -20 -39 -91 -98 -126 -106 -16 -4 -33 -14 -38 -22 -5 -9
-28 -24 -52 -32 -32 -12 -44 -22 -44 -36 0 -17 6 -20 38 -19 20 1 46 9 55 18
10 8 34 21 53 28 19 6 53 24 77 39 24 15 66 30 93 34 44 6 54 4 75 -16 51 -48
39 -140 -23 -165 -18 -8 -33 -18 -33 -22 0 -4 -22 -15 -48 -24 -62 -22 -132
-81 -116 -98 13 -13 54 -5 54 10 0 5 19 19 43 31 23 12 49 28 58 36 9 8 46 19
81 25 73 12 114 0 133 -38 6 -12 17 -29 24 -38 8 -10 10 -20 5 -25 -43 -37
-109 -83 -159 -110 -95 -52 -157 -121 -107 -121 9 0 49 18 87 40 39 22 89 49
113 60 23 12 42 25 42 30 0 6 12 10 26 10 32 0 104 -68 104 -98 0 -23 -25 -52
-44 -52 -18 0 -133 -76 -139 -93 -3 -7 -23 -19 -46 -25 -36 -11 -59 -28 -50
-36 2 -2 14 -7 27 -11 19 -5 25 -2 29 14 3 12 12 21 21 21 8 0 43 16 78 35 56
31 70 35 137 35 42 0 82 -3 91 -6 19 -7 21 -36 5 -67 -23 -43 -102 -128 -140
-150 -27 -15 -39 -29 -39 -44 0 -33 21 -28 77 16 60 47 97 66 143 76 19 3 43
9 53 12 17 4 18 0 11 -56 -6 -54 -4 -61 12 -68 51 -18 32 -49 -34 -58 -87 -11
-89 -13 -96 -49 -4 -19 -14 -40 -22 -47 -13 -11 -19 -9 -34 11 l-18 24 -30
-26 c-17 -14 -46 -28 -65 -32 -19 -4 -38 -13 -41 -21 -8 -22 -49 -18 -81 7
-31 24 -152 203 -196 289 -20 41 -35 58 -54 63 -21 5 -25 11 -20 27 5 15 2 22
-14 26 -12 3 -21 13 -21 24 0 34 -29 91 -84 164 -30 39 -63 89 -74 111 -11 21
-29 50 -41 63 -12 13 -21 29 -21 36 0 7 -13 31 -30 53 -16 23 -30 45 -30 49 0
4 -11 18 -24 32 -33 35 -82 135 -97 196 -12 52 -33 85 -54 85 -6 0 -26 22 -44
50 -18 28 -42 52 -56 56 -26 6 -83 -19 -92 -42 -11 -28 18 -94 62 -145 25 -27
45 -53 45 -58 0 -5 20 -37 44 -72 23 -35 51 -80 61 -99 10 -19 24 -39 31 -43
8 -4 14 -16 14 -26 0 -10 7 -24 16 -32 9 -7 35 -54 58 -103 48 -102 88 -156
117 -156 16 0 18 5 13 25 -11 43 14 28 27 -16 10 -32 10 -45 1 -60 -16 -26 18
-94 59 -117 16 -9 29 -25 29 -35 0 -23 36 -92 99 -192 28 -43 51 -87 51 -96 0
-26 -25 -41 -66 -37 -34 3 -39 7 -45 36 -4 21 -31 58 -78 107 -39 41 -71 80
-71 86 0 6 -15 29 -34 51 -19 22 -37 51 -41 66 -3 14 -23 51 -44 81 -21 31
-50 75 -64 99 -15 23 -34 42 -42 42 -9 0 -16 16 -21 48 -3 26 -15 55 -25 65
-11 10 -19 22 -19 27 0 5 -20 32 -45 60 -25 28 -45 58 -45 67 0 9 -18 40 -41
69 -22 29 -45 68 -50 88 -12 43 -63 96 -92 96 -16 0 -18 3 -9 12 24 24 12 64
-44 143 -31 44 -74 113 -96 153 -22 40 -49 79 -60 86 -11 8 -17 19 -13 25 3 6
-1 14 -10 17 -9 4 -30 34 -47 68 -45 89 -165 263 -220 319 -28 28 -48 57 -48
70 0 34 -54 121 -100 160 -33 28 -44 47 -58 99 -11 38 -33 84 -54 111 -33 43
-44 74 -63 175 -8 42 4 41 70 -3 60 -39 64 -45 158 -215 38 -69 93 -161 122
-205 29 -44 65 -105 80 -135 15 -30 46 -75 69 -100 23 -25 63 -85 90 -135 26
-49 71 -125 99 -167 47 -72 54 -78 85 -78 32 0 33 -1 27 -30 -6 -26 -1 -38 28
-73 18 -23 39 -52 46 -64 26 -51 59 -14 40 44 -8 26 -8 38 0 46 6 6 11 19 11
29 0 21 -55 134 -69 143 -6 3 -19 25 -30 48 -10 23 -52 81 -94 129 -50 58 -80
102 -91 136 -19 57 -59 123 -122 200 -24 29 -44 60 -44 67 0 16 -32 72 -115
199 -73 113 -125 214 -125 243 0 38 32 92 67 113 18 11 41 36 51 57 21 47 29
53 70 53 19 0 48 6 65 14 49 22 59 24 99 25 20 1 43 -5 51 -13z m375 -69 c2
-9 -4 -20 -14 -24 -20 -8 -54 29 -54 59 0 20 0 20 32 1 18 -11 34 -27 36 -36z
m-898 -142 c0 -23 -16 -26 -35 -5 -10 11 -29 20 -42 20 -29 0 -29 7 -1 38 l23
23 27 -30 c16 -17 28 -38 28 -46z m-152 -34 c2 -32 0 -42 -10 -39 -7 3 -14 23
-16 47 -2 32 0 42 10 39 7 -3 14 -23 16 -47z m-548 -20 c0 -5 -7 -11 -15 -15
-9 -3 -15 0 -15 9 0 8 7 15 15 15 8 0 15 -4 15 -9z m7472 -3 c-10 -10 -8 -16
9 -29 26 -19 20 -49 -10 -49 -28 0 -51 27 -51 61 0 26 3 29 32 29 25 0 29 -3
20 -12z m-7342 -65 c0 -30 -2 -34 -15 -23 -24 20 -18 79 6 64 5 -3 9 -21 9
-41z m266 0 c-11 -11 -19 6 -11 24 8 17 8 17 12 0 3 -10 2 -21 -1 -24z m1184
1 c0 -23 -4 -34 -12 -32 -33 11 -36 68 -3 68 11 0 15 -10 15 -36z m5725 15 c9
-29 -4 -38 -21 -15 -18 25 -18 36 0 36 8 0 18 -9 21 -21z m-191 -31 c71 -4
134 -12 139 -17 15 -15 -22 -80 -55 -97 -17 -9 -62 -43 -102 -76 -39 -33 -99
-74 -133 -90 -34 -16 -64 -36 -67 -44 -3 -7 -12 -14 -19 -14 -8 0 -22 -10 -33
-21 -10 -12 -41 -33 -69 -46 -27 -13 -66 -33 -85 -45 -103 -62 -169 -106 -201
-135 -20 -18 -55 -40 -79 -48 -23 -8 -54 -25 -70 -37 -27 -22 -132 -85 -229
-138 -25 -14 -86 -57 -136 -96 -49 -39 -108 -81 -130 -94 -22 -13 -83 -51
-135 -86 -52 -34 -141 -90 -197 -125 -155 -97 -493 -328 -536 -366 -20 -18
-48 -33 -62 -33 -13 0 -28 -6 -32 -14 -4 -7 -28 -24 -53 -36 -24 -12 -73 -45
-109 -71 -35 -27 -72 -49 -82 -49 -11 0 -19 -5 -19 -10 0 -6 -16 -20 -35 -31
-19 -12 -35 -27 -35 -35 0 -9 -11 -14 -30 -14 -18 0 -42 -11 -63 -30 -19 -16
-39 -30 -44 -30 -6 0 -40 -22 -76 -50 -36 -27 -90 -61 -119 -75 -78 -37 -139
-73 -168 -99 -36 -32 -86 -67 -160 -111 -36 -21 -93 -61 -128 -87 -35 -26 -70
-48 -77 -48 -8 0 -19 -8 -24 -18 -6 -11 -31 -27 -56 -36 -25 -10 -50 -26 -55
-36 -5 -9 -24 -20 -41 -24 -18 -3 -40 -13 -48 -22 -25 -23 -148 -94 -165 -94
-8 0 -19 -6 -23 -14 -4 -8 -25 -21 -46 -29 -20 -9 -37 -23 -37 -31 0 -8 -13
-17 -31 -21 -17 -4 -55 -29 -84 -55 -32 -29 -73 -54 -104 -65 -28 -9 -51 -21
-51 -26 0 -6 -17 -17 -37 -26 -21 -8 -119 -68 -218 -132 -99 -65 -202 -130
-229 -145 -27 -16 -64 -39 -84 -52 -47 -32 -104 -32 -157 1 -45 28 -103 33
-111 10 -8 -19 -38 -20 -53 -2 -15 19 -25 72 -17 101 4 17 19 29 51 42 25 9
45 22 45 30 0 7 14 15 31 19 35 8 130 63 143 83 4 8 31 25 60 39 171 81 197
109 161 173 -43 75 3 55 96 -43 l66 -69 69 36 c38 19 80 42 94 50 14 8 45 24
70 35 92 42 220 179 220 236 0 15 9 38 20 52 11 14 20 35 20 46 0 23 27 57 45
57 7 0 19 8 29 18 9 11 35 25 59 31 23 7 53 23 67 35 14 13 57 40 95 61 39 21
93 55 120 76 28 20 70 45 95 55 25 9 53 26 63 36 10 10 23 18 30 18 7 0 39 18
72 41 33 22 81 51 106 64 25 13 92 58 149 101 57 42 115 81 130 88 30 13 49
28 96 74 18 18 47 38 64 43 16 6 30 15 30 19 0 5 25 16 55 25 31 9 58 22 61
29 3 8 29 17 62 21 81 9 90 13 106 44 21 39 94 109 137 131 35 19 71 45 113
85 11 11 33 26 49 33 15 6 27 18 27 27 0 8 12 17 28 20 15 4 36 11 47 17 11 7
40 23 65 36 25 14 54 33 65 42 11 10 37 23 57 30 21 6 44 19 50 29 7 10 23 23
34 29 12 6 46 32 75 57 29 25 61 45 70 45 10 0 33 14 51 31 18 17 69 51 113
77 44 26 103 66 132 89 29 24 57 43 62 43 6 0 18 8 28 18 10 10 39 26 64 35
25 10 61 29 79 42 19 14 42 25 51 25 9 0 19 7 23 15 3 9 43 33 88 55 55 27 88
49 99 67 10 18 26 29 42 31 15 2 27 8 27 13 0 6 20 19 45 30 25 11 45 26 45
34 0 8 7 15 15 15 9 0 27 12 40 26 13 14 39 34 57 43 18 9 44 33 58 54 13 21
26 34 28 28 7 -21 61 -12 84 14 12 14 27 25 34 25 7 0 19 6 26 14 8 7 30 21
48 31 19 10 46 26 59 37 23 17 25 17 50 1 19 -12 60 -19 155 -25z m444 1 l-3
-24 -13 23 c-7 12 -10 27 -6 33 10 17 26 -6 22 -32z m-127 -89 c27 -15 25 -42
-3 -38 -15 2 -24 11 -26 26 -4 25 1 27 29 12z m132 -5 c1 -5 -6 -11 -15 -13
-11 -2 -18 3 -18 13 0 17 30 18 33 0z m-5873 -55 c0 -13 -28 -25 -38 -16 -3 4
0 11 8 16 20 13 30 12 30 0z m5982 -69 c37 -28 49 -31 112 -31 125 0 132 -32
10 -40 l-75 -5 33 -55 c18 -30 43 -59 56 -65 29 -13 28 -31 -2 -39 -14 -3 -28
-15 -31 -26 -10 -30 -34 -50 -61 -50 -14 0 -24 -6 -24 -14 0 -8 -17 -20 -37
-26 -69 -22 -103 -75 -45 -68 20 2 28 9 30 26 3 22 5 23 22 7 16 -15 20 -14
56 7 27 16 54 22 96 23 53 0 60 -3 97 -39 24 -24 47 -60 61 -97 11 -33 38 -79
58 -103 20 -24 45 -57 54 -75 9 -17 29 -36 43 -41 22 -8 25 -16 25 -54 0 -55
15 -95 40 -113 11 -8 20 -19 20 -25 0 -6 20 -45 44 -87 83 -144 85 -199 10
-232 -26 -10 -78 -49 -118 -86 -39 -36 -86 -72 -104 -80 -18 -7 -60 -34 -93
-58 -34 -25 -67 -45 -74 -45 -7 0 -28 -16 -46 -35 -19 -19 -40 -35 -48 -35 -8
0 -37 -17 -65 -39 -29 -21 -70 -48 -93 -59 -22 -12 -43 -28 -46 -37 -4 -8 -16
-15 -28 -15 -21 0 -21 -1 5 -34 47 -63 28 -96 -57 -96 -54 0 -61 7 -42 37 15
22 14 23 -7 23 -39 0 -88 -37 -95 -71 l-6 -31 -66 5 c-48 3 -82 13 -124 35
-31 17 -58 34 -60 37 -1 4 9 13 23 20 l25 14 -32 1 c-58 0 -63 6 -63 75 0 78
7 100 26 84 8 -6 14 -22 14 -36 0 -35 18 -63 39 -63 13 0 27 18 45 53 30 63
34 135 11 260 -16 93 -42 150 -98 213 -55 63 -103 84 -195 84 -65 0 -76 -3
-98 -25 -14 -14 -37 -31 -53 -39 -31 -17 -74 -77 -85 -120 -9 -38 -77 -106
-105 -106 -11 0 -21 -5 -21 -10 0 -6 -12 -16 -27 -22 -16 -7 -38 -23 -50 -35
-12 -12 -42 -27 -67 -34 -25 -6 -60 -22 -77 -35 -18 -13 -41 -24 -50 -24 -9 0
-44 -20 -76 -45 -33 -24 -81 -54 -108 -65 -26 -11 -64 -33 -84 -49 -20 -16
-61 -43 -93 -60 -31 -18 -59 -39 -62 -47 -3 -8 -19 -20 -36 -25 -16 -6 -30
-15 -30 -20 0 -5 -19 -19 -42 -30 -49 -23 -190 -104 -234 -135 -16 -11 -44
-26 -61 -33 -18 -8 -33 -19 -33 -26 0 -7 -21 -22 -47 -34 -82 -37 -112 -56
-128 -78 -8 -11 -31 -28 -52 -36 -21 -8 -64 -36 -97 -61 -32 -25 -75 -50 -96
-56 -21 -6 -41 -17 -44 -25 -3 -8 -12 -15 -21 -15 -8 0 -39 -16 -68 -35 -28
-19 -67 -37 -84 -41 -18 -4 -33 -11 -33 -15 0 -5 -15 -18 -32 -29 -18 -11 -33
-25 -33 -32 0 -7 -11 -15 -25 -16 -13 -2 -39 -17 -57 -32 -17 -15 -45 -31 -62
-35 -17 -4 -37 -15 -43 -24 -7 -10 -37 -26 -66 -35 -31 -11 -59 -28 -69 -42
-8 -13 -21 -24 -28 -24 -7 0 -32 -15 -56 -34 -24 -18 -67 -45 -95 -59 -28 -14
-54 -33 -57 -42 -4 -8 -14 -15 -22 -15 -9 0 -36 -13 -60 -30 -24 -16 -55 -34
-69 -40 -14 -5 -26 -16 -26 -23 0 -9 -16 -17 -40 -21 -31 -5 -43 -12 -50 -32
-6 -14 -8 -29 -5 -34 7 -12 62 5 104 33 20 13 46 27 59 31 12 4 34 18 47 32
13 13 30 24 36 24 7 0 33 17 58 38 55 46 83 62 110 62 11 0 25 9 31 20 6 11
30 30 53 41 23 12 70 42 105 67 64 45 203 112 234 112 10 0 22 9 27 19 6 10
25 24 42 30 17 6 33 19 36 30 3 12 20 25 39 31 19 7 34 16 34 21 0 6 25 21 55
34 30 14 55 29 55 35 0 5 9 10 19 10 11 0 52 25 91 55 40 30 89 60 109 66 20
6 45 19 56 29 11 10 30 21 42 24 11 4 28 18 37 31 9 14 23 25 31 25 9 0 20 11
26 24 8 16 23 26 44 30 18 4 53 22 78 41 25 19 52 35 60 35 8 0 20 7 28 16 7
9 30 23 51 31 21 8 38 19 38 25 0 5 15 15 33 23 17 7 49 27 71 44 21 17 44 31
51 31 7 0 15 8 18 19 3 12 17 20 43 24 26 4 59 23 99 56 33 28 71 53 84 56 14
3 35 15 48 25 13 10 48 26 78 35 29 10 56 23 59 30 2 7 28 21 56 30 35 12 60
28 81 55 43 54 55 56 95 16 33 -33 34 -36 34 -112 0 -114 -4 -122 -57 -130
-29 -4 -55 -16 -73 -34 -17 -16 -44 -30 -69 -34 -22 -3 -41 -11 -41 -16 0 -6
-19 -20 -42 -31 -59 -27 -118 -70 -118 -84 0 -7 -13 -18 -29 -25 -16 -6 -44
-22 -62 -35 -17 -13 -44 -27 -60 -30 -29 -7 -205 -110 -238 -139 -10 -9 -23
-16 -29 -16 -6 0 -26 -16 -43 -34 -17 -19 -44 -38 -59 -41 -16 -3 -34 -13 -41
-21 -7 -8 -28 -22 -47 -29 -19 -8 -43 -26 -54 -40 -11 -14 -24 -25 -29 -25 -5
0 -26 -11 -47 -24 -20 -14 -49 -28 -64 -31 -16 -4 -28 -13 -28 -20 0 -7 -22
-21 -50 -30 -27 -9 -53 -22 -57 -28 -5 -7 -29 -23 -55 -36 -26 -13 -65 -39
-87 -57 -21 -19 -43 -34 -49 -34 -5 0 -37 -18 -71 -40 -34 -22 -68 -40 -76
-40 -8 0 -15 -7 -15 -15 0 -9 -20 -20 -51 -29 -27 -9 -64 -27 -80 -41 -17 -14
-35 -25 -40 -25 -5 0 -9 -7 -9 -15 0 -9 -12 -20 -27 -26 -14 -5 -41 -22 -58
-38 -18 -16 -48 -31 -67 -35 -19 -3 -45 -17 -58 -31 -13 -14 -28 -25 -33 -25
-6 0 -33 -17 -61 -38 -65 -50 -80 -57 -144 -72 -30 -7 -56 -18 -58 -25 -3 -7
-15 -16 -27 -19 -13 -3 -55 -30 -96 -61 -40 -30 -79 -55 -87 -55 -8 0 -26 -11
-39 -24 -13 -14 -35 -28 -47 -31 -13 -4 -44 -23 -69 -41 -26 -19 -51 -34 -56
-34 -4 0 -35 -20 -66 -43 -32 -24 -83 -52 -113 -61 -30 -9 -54 -21 -54 -27 0
-5 -24 -20 -52 -33 -29 -13 -78 -42 -108 -65 -30 -23 -71 -46 -92 -52 -21 -5
-38 -14 -38 -20 0 -5 -20 -18 -45 -29 -25 -11 -45 -24 -45 -30 0 -6 -16 -18
-35 -26 -19 -8 -35 -20 -35 -27 0 -7 -17 -21 -39 -32 -44 -23 -187 -116 -213
-139 -40 -36 -90 -10 -139 69 -36 58 -17 113 48 140 19 8 51 28 71 44 21 16
56 39 80 51 23 12 46 28 50 34 4 7 21 18 39 25 17 7 51 31 75 53 43 40 43 40
19 49 -19 8 -32 4 -60 -14 -61 -41 -104 -66 -148 -86 -24 -11 -43 -25 -43 -31
0 -5 -6 -10 -14 -10 -8 0 -27 -11 -43 -24 -41 -34 -62 -43 -115 -51 -44 -7
-50 -5 -77 22 -48 48 -67 163 -27 163 8 0 34 16 58 36 23 20 70 49 103 64 33
15 68 37 77 49 10 11 24 21 32 21 7 0 19 7 26 15 7 8 32 24 56 35 24 10 44 24
44 29 0 6 6 11 14 11 7 0 41 18 74 40 33 22 67 40 76 40 9 0 16 7 16 15 0 9
12 21 28 27 15 7 36 20 47 29 11 10 46 25 76 33 31 8 70 22 85 30 61 35 125
80 158 112 11 11 36 26 55 32 19 7 48 22 65 35 17 13 58 38 91 57 33 18 80 50
105 71 25 20 63 45 85 54 41 16 95 61 95 78 0 30 -216 -75 -293 -142 -32 -28
-64 -51 -71 -51 -7 0 -21 -9 -30 -19 -10 -11 -32 -23 -50 -27 -41 -9 -99 -38
-117 -60 -8 -9 -47 -32 -86 -50 -40 -19 -73 -38 -73 -43 0 -5 -14 -14 -32 -20
-17 -6 -40 -18 -49 -27 -10 -9 -60 -25 -111 -35 -51 -11 -97 -24 -102 -29 -13
-13 -146 -13 -166 0 -12 7 -7 12 21 24 20 8 42 22 49 31 8 9 31 25 52 36 21
11 36 24 33 29 -9 15 -61 12 -75 -5 -17 -20 -90 -61 -125 -69 -16 -4 -50 -23
-76 -42 -26 -19 -52 -34 -58 -34 -18 0 -12 -13 25 -55 33 -38 38 -40 86 -38
36 2 60 9 84 28 19 14 39 23 44 20 18 -11 10 -34 -17 -52 -16 -9 -40 -27 -55
-39 -15 -12 -41 -25 -58 -29 -17 -4 -34 -15 -40 -24 -5 -10 -24 -24 -42 -32
-18 -7 -39 -21 -46 -31 -7 -10 -19 -18 -27 -18 -7 0 -22 -16 -34 -35 -15 -26
-27 -35 -46 -35 -50 0 -115 49 -115 86 0 32 46 83 94 105 23 10 52 25 66 33
14 8 37 17 53 21 37 7 39 45 2 45 -27 0 -169 -63 -196 -87 -11 -9 -33 -13 -60
-11 -35 2 -44 7 -46 23 -3 26 20 53 82 94 28 19 89 63 136 98 47 34 101 66
120 70 19 3 38 12 42 20 4 7 14 13 21 13 8 0 16 6 19 13 3 7 36 25 75 40 43
17 91 47 126 77 30 26 69 51 86 55 16 4 30 13 30 20 0 7 22 21 50 30 27 9 52
21 56 26 3 6 30 21 60 34 30 13 91 53 136 88 46 35 102 74 126 86 24 12 56 41
74 65 27 38 36 44 78 50 26 4 53 13 60 21 7 8 30 20 51 26 21 7 46 20 55 31
10 10 23 18 30 18 6 0 30 15 53 33 22 17 55 41 73 52 28 17 42 35 62 80 3 6
12 1 20 -10 16 -19 16 -19 31 2 8 12 30 25 48 29 17 3 44 17 59 29 15 13 53
38 83 55 31 18 61 41 68 51 6 10 19 19 27 19 8 0 35 14 60 30 25 17 60 37 78
45 17 8 32 18 32 23 0 5 14 15 30 22 17 7 30 16 30 21 0 20 42 49 69 49 16 0
31 6 34 15 6 13 34 30 145 85 23 11 42 25 42 31 0 5 21 19 47 30 25 11 73 40
106 65 34 25 81 57 106 71 26 14 89 54 142 89 52 35 121 75 152 89 37 17 62
37 72 55 10 19 25 30 49 34 24 5 45 20 70 51 21 24 56 54 79 65 88 42 223 129
278 178 97 87 173 133 239 142 43 6 69 17 104 44 26 20 51 36 55 36 4 0 41 25
81 55 40 30 78 55 85 55 6 0 18 9 28 20 9 11 25 20 35 20 11 0 63 28 118 61
151 94 161 101 179 131 9 15 22 28 29 28 30 0 116 32 116 43 0 15 105 83 143
93 16 3 35 17 44 30 8 13 24 24 35 24 11 0 22 8 25 20 3 11 20 24 39 30 19 7
34 18 34 25 0 8 10 20 23 26 12 6 31 20 42 30 11 10 40 25 63 33 24 9 55 25
70 37 36 28 88 21 144 -20z m-469 -18 c-7 -2 -21 -2 -30 0 -10 3 -4 5 12 5 17
0 24 -2 18 -5z m-5466 -28 c5 -14 7 -14 23 0 23 21 74 16 78 -7 2 -12 -6 -21
-22 -28 -14 -5 -26 -16 -26 -25 0 -20 -39 -20 -46 0 -6 14 -8 13 -19 -1 -7
-10 -19 -15 -28 -11 -19 7 -32 49 -23 72 7 20 55 19 63 0z m5333 -119 c0 -14
-5 -28 -10 -31 -13 -8 -24 20 -16 40 9 24 26 17 26 -9z m870 -51 c0 -8 -7 -15
-15 -15 -8 0 -15 7 -15 15 0 8 7 15 15 15 8 0 15 -7 15 -15z m-5925 -85 c4 -6
-7 -10 -25 -10 -18 0 -29 4 -25 10 3 6 15 10 25 10 10 0 22 -4 25 -10z m4703
-15 c15 -33 15 -78 0 -93 -14 -14 -84 -16 -92 -4 -3 5 6 25 19 45 14 20 25 45
25 56 0 30 34 27 48 -4z m-4448 -120 c0 -26 -14 -33 -25 -15 -9 14 1 40 15 40
5 0 10 -11 10 -25z m5800 -19 c-13 -13 -35 7 -25 24 5 8 11 8 21 -1 10 -8 12
-15 4 -23z m-6055 -8 c14 -35 6 -58 -21 -58 -15 0 -18 29 -8 68 8 29 12 28 29
-10z m179 -36 c-12 -18 -64 -30 -64 -13 0 18 53 52 64 41 7 -7 7 -16 0 -28z
m-116 -54 c-6 -18 -28 -21 -28 -4 0 9 7 16 16 16 9 0 14 -5 12 -12z m118 -193
c28 -28 27 -48 -1 -54 -22 -4 -45 24 -45 56 0 30 15 29 46 -2z m204 -41 c0 -8
-7 -14 -15 -14 -15 0 -21 21 -9 33 10 9 24 -2 24 -19z m-114 -45 c3 -6 1 -16
-4 -21 -13 -13 -45 8 -36 23 7 12 31 11 40 -2z m2724 -20 c0 -20 -15 -26 -25
-9 -9 15 3 43 15 35 5 -3 10 -15 10 -26z m-2659 -179 c5 0 9 -4 9 -10 0 -16
-36 -11 -60 8 -26 21 -21 39 14 51 18 7 21 5 24 -20 2 -16 7 -29 13 -29z m314
-201 c10 -15 -1 -23 -20 -15 -9 3 -13 10 -10 16 8 13 22 13 30 -1z m4255 -60
c0 -4 12 -14 28 -21 l27 -13 -1 -165 c-1 -127 -10 -232 -39 -455 -32 -248 -37
-309 -32 -420 4 -108 2 -139 -13 -185 -10 -30 -23 -100 -30 -155 -26 -228 -32
-271 -43 -291 -37 -65 -61 -94 -76 -94 -9 0 -22 -9 -29 -20 -15 -24 -25 -25
-46 -5 -14 14 -18 14 -41 -1 -27 -18 -77 -12 -72 9 1 8 -16 13 -53 14 -107 5
-235 25 -265 43 -16 10 -54 23 -83 30 -30 7 -56 18 -58 25 -3 7 -16 16 -30 19
-13 4 -24 13 -24 20 0 8 36 44 80 80 77 64 81 66 135 66 40 0 57 -4 61 -15 8
-19 34 -20 34 -1 0 9 17 16 50 20 80 11 136 72 179 197 26 76 36 142 76 499
42 373 62 526 76 572 5 18 14 68 19 110 10 86 28 121 68 136 51 20 102 21 102
1z m-5163 -65 c9 -25 -13 -40 -26 -16 -10 19 -6 32 11 32 5 0 11 -7 15 -16z
m3568 7 c3 -5 1 -13 -5 -16 -15 -9 -43 3 -35 15 8 13 32 13 40 1z m3075 1 c21
13 53 3 48 -15 -6 -15 -81 -32 -104 -23 -16 6 -15 8 1 26 12 13 22 17 28 11 6
-6 16 -6 27 1z m-5620 -52 c0 -6 16 -18 35 -27 42 -20 43 -46 2 -51 -20 -2
-36 5 -57 27 -37 37 -39 61 -5 61 14 0 25 -5 25 -10z m-120 -60 c0 -12 -49
-45 -56 -37 -3 3 -1 15 6 26 11 21 50 30 50 11z m5770 -60 c0 -21 -15 -27 -25
-10 -7 12 2 30 16 30 5 0 9 -9 9 -20z m-146 -39 c28 -19 86 -95 86 -113 0 -20
164 -305 197 -341 19 -22 54 -79 75 -126 47 -101 116 -212 164 -261 19 -20 49
-73 68 -118 35 -85 126 -221 177 -266 16 -15 29 -35 29 -45 0 -10 7 -24 15
-31 8 -7 17 -28 21 -49 4 -20 14 -45 24 -56 9 -11 27 -38 39 -60 13 -22 29
-44 37 -48 8 -4 14 -18 14 -31 0 -13 9 -31 20 -41 11 -10 20 -23 20 -29 0 -15
121 -223 153 -261 13 -16 50 -77 82 -135 92 -165 206 -361 235 -405 15 -22 46
-76 68 -120 22 -45 57 -101 77 -125 21 -25 57 -84 81 -132 23 -49 115 -199
202 -336 88 -136 173 -274 190 -308 17 -33 37 -66 46 -73 9 -8 16 -19 16 -26
0 -7 9 -23 19 -36 17 -22 21 -22 45 -10 32 18 43 9 28 -24 -24 -52 -8 -72 30
-38 17 16 20 16 36 -1 16 -16 16 -18 -2 -31 -10 -8 -23 -16 -29 -18 -13 -4 59
-176 84 -200 11 -10 19 -24 19 -31 0 -7 14 -25 30 -39 17 -15 30 -31 30 -37 0
-5 18 -37 40 -71 22 -34 40 -71 40 -81 0 -10 16 -44 36 -75 43 -67 74 -144 74
-183 0 -40 -44 -74 -85 -66 -42 9 -51 21 -36 49 17 32 -7 78 -151 300 -60 92
-136 216 -168 274 -69 124 -68 123 -112 132 -33 7 -33 7 -30 58 4 53 -15 106
-41 116 -7 3 -31 38 -51 79 -51 97 -164 290 -255 436 -41 64 -107 174 -147
244 -40 70 -97 164 -127 210 -30 46 -74 121 -98 168 -24 47 -68 117 -97 155
-29 39 -57 88 -63 110 -21 78 -96 185 -130 185 -10 0 -19 7 -19 15 0 8 7 15
15 15 20 0 19 9 -4 34 -10 12 -45 68 -77 126 -31 58 -86 147 -121 197 -36 51
-75 119 -88 152 -12 32 -41 83 -62 112 -22 30 -60 88 -83 129 -24 41 -58 96
-76 121 -19 26 -34 53 -34 61 0 7 -17 37 -38 65 -51 67 -191 300 -244 405 -23
46 -56 101 -73 123 -36 45 -65 97 -65 117 0 8 -9 21 -20 31 -11 9 -20 23 -20
31 0 8 -6 16 -14 19 -8 3 -17 21 -21 39 -3 18 -18 61 -32 95 -37 89 -16 118
51 74z m-4409 -12 c10 -15 -1 -23 -20 -15 -9 3 -13 10 -10 16 8 13 22 13 30
-1z m-885 -24 c0 -10 -10 -15 -26 -15 -22 0 -25 2 -14 15 7 8 19 15 26 15 8 0
14 -7 14 -15z m4836 -60 c-3 -9 -18 -15 -36 -15 -33 0 -37 -13 -18 -55 15 -33
4 -43 -22 -20 -14 13 -20 29 -18 49 2 25 9 33 36 42 17 5 38 16 44 22 15 15
23 0 14 -23z m276 -6 c21 -22 52 -67 68 -100 17 -32 34 -59 39 -59 6 0 13 -10
16 -22 4 -13 20 -36 35 -53 15 -16 37 -48 48 -70 11 -22 55 -96 98 -165 42
-69 118 -199 167 -290 49 -91 108 -191 131 -223 23 -32 50 -76 61 -97 11 -21
27 -46 36 -56 9 -11 41 -62 70 -114 77 -137 269 -454 280 -461 5 -3 37 -54 70
-114 33 -60 87 -150 120 -200 32 -51 59 -97 59 -102 0 -6 15 -20 34 -31 27
-16 36 -30 46 -71 8 -34 32 -80 71 -134 33 -46 66 -105 75 -134 8 -28 22 -57
31 -64 8 -7 33 -51 55 -96 40 -85 108 -170 127 -158 7 4 11 -5 11 -24 0 -45
29 -122 56 -152 13 -14 24 -31 24 -37 0 -7 16 -22 35 -33 23 -14 35 -29 35
-42 0 -28 81 -188 114 -228 15 -17 44 -62 66 -100 31 -52 51 -74 82 -90 38
-19 40 -23 35 -55 -7 -43 41 -143 112 -231 49 -61 94 -137 233 -397 97 -181
113 -200 186 -216 98 -20 107 -40 29 -60 -23 -6 -55 -20 -70 -31 -34 -25 -54
-19 -63 18 -3 15 -7 33 -9 39 -2 5 -21 16 -44 22 -34 11 -50 26 -97 90 -31 42
-65 84 -76 93 -14 11 -18 22 -14 37 4 11 2 23 -5 27 -6 4 -23 33 -38 64 -15
31 -35 69 -46 85 -11 16 -20 34 -21 40 -4 22 -183 325 -228 385 -24 34 -68
102 -96 151 -28 49 -55 92 -61 95 -5 4 -9 17 -9 29 0 13 -24 56 -54 96 -30 41
-59 92 -66 114 -7 23 -28 58 -46 79 -19 20 -34 46 -34 57 0 25 -53 85 -67 77
-6 -4 -16 -20 -21 -37 -9 -25 -6 -38 19 -89 17 -34 41 -69 54 -80 14 -10 29
-30 35 -45 5 -14 14 -26 19 -26 5 0 12 -19 15 -42 8 -51 22 -78 100 -187 32
-45 69 -87 82 -92 13 -4 24 -15 24 -23 0 -8 7 -19 16 -24 13 -7 14 -12 3 -29
-10 -18 -6 -32 36 -109 48 -88 78 -136 168 -267 26 -38 47 -76 47 -85 0 -9 13
-35 28 -58 15 -23 43 -65 63 -95 62 -92 136 -222 148 -262 10 -30 10 -41 0
-53 -19 -23 -72 -14 -84 14 -9 21 -15 23 -50 17 -21 -3 -41 -8 -44 -10 -14
-14 1 -70 28 -102 45 -55 41 -62 -36 -65 l-68 -3 -5 -50 c-6 -64 -28 -66 -48
-6 l-15 44 -19 -27 c-11 -14 -33 -33 -49 -41 -27 -15 -29 -14 -46 12 -10 16
-32 47 -50 71 -18 23 -35 58 -39 77 -3 20 -15 40 -25 46 -11 5 -19 18 -19 28
0 11 -6 21 -14 24 -7 3 -29 36 -47 74 -47 93 -222 374 -249 398 -22 20 -22 20
-41 -4 -27 -33 -24 -57 14 -101 17 -21 54 -78 81 -126 27 -49 71 -121 98 -160
26 -40 62 -105 78 -145 17 -40 39 -83 49 -94 21 -22 77 -130 96 -185 20 -56 7
-67 -49 -46 -52 20 -89 62 -153 171 -43 72 -73 110 -94 117 -7 2 -14 21 -15
42 -2 23 -16 55 -37 84 -19 26 -51 81 -72 122 -21 41 -54 102 -75 135 -20 33
-54 91 -75 129 -21 38 -52 85 -70 105 -18 20 -63 95 -100 166 -38 72 -83 150
-100 175 -18 25 -43 65 -55 90 -12 25 -41 70 -65 100 -23 30 -51 76 -63 102
-28 63 -106 185 -147 228 -31 33 -82 125 -138 250 -13 30 -60 112 -103 182
-43 70 -98 160 -122 200 -23 40 -63 107 -89 148 -26 41 -87 154 -136 250 -49
96 -135 245 -192 330 -108 163 -156 241 -250 405 -32 55 -72 118 -90 140 -17
22 -35 54 -39 70 -4 17 -29 66 -55 110 -27 44 -60 103 -74 132 -25 48 -71 93
-96 93 -6 0 -11 9 -11 19 0 11 -34 85 -75 166 -41 80 -75 154 -75 165 0 35 72
56 84 24 3 -9 11 -14 18 -12 18 6 85 -98 103 -157 8 -28 30 -69 50 -92 20 -23
46 -66 60 -95 13 -29 35 -63 48 -75 13 -12 59 -90 102 -174 45 -87 106 -186
141 -231 35 -44 66 -94 69 -111 4 -18 69 -126 145 -242 136 -207 221 -350 241
-403 9 -25 45 -87 170 -299 27 -45 49 -84 49 -88 0 -3 35 -63 79 -133 43 -70
82 -137 85 -149 4 -13 11 -23 16 -23 5 0 19 -18 31 -41 11 -23 54 -95 95 -160
41 -66 84 -140 94 -165 12 -27 28 -48 40 -51 11 -3 24 -20 31 -42 6 -20 51
-97 99 -171 48 -74 95 -152 104 -173 9 -22 49 -94 89 -160 41 -67 100 -170
131 -229 32 -60 63 -108 69 -108 7 0 25 18 40 40 27 38 27 40 8 40 -16 0 -21
6 -21 27 0 14 -6 34 -13 42 -8 9 -20 32 -27 51 -7 19 -25 49 -40 65 -15 17
-40 48 -56 70 -15 22 -41 55 -56 73 -15 18 -28 43 -28 55 0 12 -22 60 -50 107
-27 47 -50 90 -50 96 0 6 -28 49 -62 95 -35 47 -92 136 -127 199 -35 63 -73
125 -84 137 -11 13 -18 26 -14 29 9 10 -16 52 -68 114 -25 30 -59 84 -76 120
-60 129 -85 172 -139 245 -30 41 -64 78 -76 84 -14 6 -23 22 -28 50 -3 23 -14
46 -26 54 -11 8 -27 36 -35 64 -8 27 -45 99 -83 159 -38 60 -86 141 -107 179
-67 123 -107 189 -147 241 -21 28 -38 54 -38 59 0 4 -14 30 -31 58 -17 28 -37
71 -45 96 -7 24 -48 97 -90 160 -43 64 -98 146 -122 183 -25 37 -53 75 -63 84
-11 10 -19 28 -19 41 0 34 -54 139 -139 267 -39 59 -91 150 -116 201 -24 51
-58 106 -75 123 -35 35 -39 62 -10 62 14 0 20 -7 20 -21 0 -26 18 -15 31 18
12 32 39 27 59 -12 8 -16 36 -64 62 -105 26 -41 51 -87 57 -102 6 -16 15 -28
21 -28 5 0 19 -19 31 -42 12 -24 50 -90 84 -148 58 -97 110 -188 160 -280 11
-20 30 -50 43 -66 69 -87 240 -392 256 -457 4 -15 17 -33 31 -39 13 -6 23 -14
20 -17 -7 -12 31 -84 70 -136 22 -27 60 -84 86 -125 25 -41 63 -100 84 -130
20 -30 60 -100 87 -155 28 -55 59 -112 70 -127 11 -16 16 -28 12 -28 -4 0 0
-8 8 -17 9 -10 42 -61 73 -113 31 -52 77 -122 102 -155 35 -47 154 -246 272
-455 4 -8 20 -16 35 -18 21 -3 26 -8 26 -33 0 -32 39 -118 64 -138 8 -7 22
-35 31 -62 9 -27 21 -49 26 -49 6 0 15 -13 20 -29 6 -16 17 -32 25 -35 8 -3
22 -23 30 -43 9 -21 38 -75 65 -120 27 -45 61 -106 75 -137 14 -31 30 -56 36
-56 5 0 8 -6 5 -14 -3 -8 4 -18 16 -24 13 -6 29 -29 39 -58 15 -44 55 -95 101
-131 9 -7 19 -30 22 -50 3 -21 15 -56 27 -78 12 -22 39 -74 61 -115 22 -41 54
-93 71 -115 30 -38 49 -65 88 -124 10 -14 18 -34 18 -45 0 -24 58 -96 120
-149 10 -8 20 -21 23 -28 4 -12 8 -11 21 2 16 15 16 19 -3 68 -23 57 -45 95
-74 128 -11 12 -25 32 -31 44 -6 13 -26 27 -43 31 -36 9 -42 22 -17 36 14 8
15 14 4 48 -22 66 -48 111 -79 133 -16 12 -32 30 -36 40 -3 10 -19 24 -35 31
-23 10 -32 23 -44 64 -21 71 -116 257 -165 320 -21 28 -71 108 -109 178 -38
69 -83 146 -99 170 -44 63 -99 165 -123 227 -12 30 -34 71 -49 90 -15 20 -44
63 -64 96 -19 33 -56 86 -81 119 -25 32 -46 65 -46 73 0 7 -7 16 -15 19 -8 4
-15 12 -15 19 0 8 -8 21 -17 31 -10 9 -18 22 -19 29 -1 7 -17 37 -36 66 -19
30 -40 69 -46 87 -6 18 -27 52 -45 75 -19 23 -68 103 -109 177 -42 74 -92 162
-112 195 -20 33 -36 65 -36 71 0 5 -14 23 -31 40 -43 41 -128 181 -135 223 -4
20 -25 61 -49 91 -23 30 -62 91 -87 135 -24 44 -66 113 -92 153 -26 41 -58 98
-71 128 -13 29 -39 74 -59 99 -19 26 -42 67 -51 93 -8 26 -33 72 -55 102 -22
30 -59 88 -82 128 -24 40 -71 116 -106 170 -80 123 -184 329 -180 356 2 17 9
21 38 19 44 -2 68 -29 139 -162 30 -55 64 -107 77 -116 13 -8 28 -32 34 -54 5
-21 33 -69 60 -106 28 -37 50 -72 50 -77 0 -25 77 -159 140 -244 40 -53 94
-144 123 -207 30 -62 74 -144 100 -184 25 -39 58 -95 73 -124 14 -29 70 -119
123 -199 109 -163 268 -427 283 -470 5 -16 15 -31 23 -34 12 -4 60 -84 140
-235 27 -50 35 -57 75 -67 39 -9 69 -34 41 -34 -19 0 -12 -56 12 -91 13 -19
37 -63 53 -99 17 -36 52 -99 77 -140 26 -41 47 -78 47 -82 0 -5 25 -48 55 -97
30 -49 58 -97 62 -107 11 -30 92 -150 124 -185 16 -17 29 -37 29 -44 0 -6 14
-31 31 -55 17 -24 54 -91 81 -149 27 -58 66 -126 86 -151 21 -25 50 -62 66
-83 15 -21 36 -41 45 -44 26 -10 71 -55 71 -74 0 -9 -7 -20 -15 -23 -14 -5
-13 -10 3 -43 11 -21 25 -55 32 -76 6 -21 23 -50 36 -64 13 -14 24 -31 24 -38
0 -7 7 -18 15 -25 8 -7 51 -66 95 -131 44 -65 85 -121 90 -124 6 -4 19 4 30
17 l19 23 1 -22 c0 -14 6 -23 15 -23 37 0 1 78 -75 163 -28 31 -56 73 -62 93
-6 23 -33 59 -72 99 -48 48 -65 72 -70 101 -16 86 -103 224 -142 224 -8 0 -14
10 -14 25 0 29 -28 89 -72 152 -16 24 -42 75 -58 115 -35 88 -80 134 -111 117
-31 -16 -34 -4 -9 31 l22 30 -27 33 c-29 35 -132 208 -215 361 -28 53 -62 109
-76 125 -13 16 -24 33 -24 39 0 6 -20 34 -44 62 -25 29 -57 82 -71 119 -15 36
-33 70 -41 74 -8 4 -14 17 -14 27 0 10 -6 23 -14 27 -7 4 -25 31 -39 59 -14
28 -46 81 -71 118 -25 36 -46 70 -46 74 0 4 -29 57 -65 117 -35 61 -65 115
-65 122 0 7 -9 17 -20 23 -11 6 -20 20 -20 32 0 11 -22 51 -50 88 -27 37 -57
85 -66 106 -9 21 -32 63 -52 93 -19 31 -54 92 -77 137 -46 88 -122 206 -212
329 -32 45 -96 154 -142 244 -46 90 -105 192 -132 227 -27 36 -53 73 -59 84
-6 11 -20 20 -30 20 -11 0 -20 6 -20 14 0 8 -16 47 -35 87 -19 41 -35 79 -35
86 0 8 -20 53 -44 101 -75 149 -91 222 -48 222 20 0 72 -49 72 -67 0 -8 6 -16
14 -19 8 -3 26 -29 40 -57 29 -57 62 -99 93 -115 11 -6 25 -30 32 -54 23 -76
124 -275 148 -291 7 -4 46 -76 87 -160 41 -84 116 -215 165 -291 50 -77 91
-144 91 -151 0 -15 115 -184 145 -212 13 -12 74 -111 135 -220 62 -109 130
-221 151 -250 21 -29 70 -109 109 -178 38 -69 78 -138 88 -153 11 -15 23 -38
27 -52 4 -14 18 -38 31 -53 13 -15 49 -75 79 -132 31 -58 72 -123 91 -146 19
-22 34 -45 34 -51 0 -5 13 -28 29 -51 15 -23 43 -71 61 -107 l32 -64 19 23
c11 14 19 39 19 62 0 31 -7 45 -35 73 -21 21 -35 45 -35 60 0 13 -10 37 -22
53 -28 34 -37 48 -86 138 -77 140 -159 281 -179 310 -11 17 -47 76 -79 133
-33 56 -74 128 -93 160 -19 31 -56 93 -82 137 -26 44 -56 89 -66 100 -11 11
-43 64 -71 117 -28 54 -79 139 -111 189 -33 50 -63 99 -66 110 -4 10 -10 19
-15 19 -5 0 -19 19 -31 43 -29 57 -88 143 -141 204 -75 89 -111 156 -173 327
-10 26 -26 56 -36 64 -11 9 -19 24 -19 33 0 9 -15 39 -33 65 -19 27 -60 96
-92 153 -32 57 -72 120 -90 140 -18 20 -35 48 -39 64 -7 29 -17 33 -47 17 -26
-14 -25 4 1 37 24 31 20 39 -26 46 -72 12 -83 44 -27 82 51 34 70 32 115 -16z
m-372 -115 c0 -19 -24 -44 -42 -44 -21 0 -21 0 2 25 22 23 40 32 40 19z
m-4667 -10 c10 -11 -5 -34 -22 -34 -25 0 -33 11 -20 27 12 14 31 17 42 7z
m-1268 -63 c3 -5 1 -13 -5 -16 -15 -9 -43 3 -35 15 8 13 32 13 40 1z m4695
-110 c0 -98 -8 -141 -29 -148 -9 -4 -41 -21 -71 -39 -30 -17 -72 -35 -92 -38
-21 -4 -38 -11 -38 -17 0 -5 -19 -18 -43 -28 -23 -10 -48 -25 -55 -34 -7 -8
-27 -21 -45 -28 -18 -7 -64 -36 -103 -66 -39 -29 -77 -53 -86 -53 -9 0 -38
-18 -64 -41 -27 -23 -71 -52 -99 -66 -86 -42 -159 -86 -214 -130 -29 -24 -59
-43 -66 -43 -7 0 -43 -25 -80 -55 -39 -31 -81 -57 -101 -61 -18 -3 -39 -13
-45 -21 -7 -8 -30 -23 -52 -34 -54 -28 -157 -110 -157 -125 0 -21 22 -28 35
-11 7 10 17 17 22 17 6 0 38 18 71 40 33 22 64 40 69 40 5 0 41 24 80 54 39
29 83 56 97 60 14 3 26 11 26 17 0 5 20 19 45 30 25 11 45 24 45 29 0 5 10 12
23 15 30 9 124 69 198 127 34 27 80 53 103 59 22 7 50 22 61 33 11 12 32 27
48 34 15 6 27 16 27 22 0 5 8 10 18 10 9 0 43 18 76 40 32 22 64 40 71 40 6 0
22 11 34 24 13 13 37 27 55 30 18 4 43 17 56 31 13 14 32 25 42 25 10 0 31 9
47 21 32 24 75 18 92 -13 6 -10 9 -49 8 -86 -3 -74 3 -92 32 -92 26 0 25 -36
-2 -50 -25 -14 -49 -6 -49 15 0 24 -36 18 -54 -9 -8 -13 -30 -27 -47 -31 -18
-4 -64 -31 -103 -59 -105 -78 -245 -170 -296 -196 -25 -12 -76 -46 -115 -76
-38 -29 -82 -57 -97 -63 -16 -6 -28 -17 -28 -26 0 -9 -9 -15 -23 -15 -24 0
-119 -55 -152 -89 -11 -11 -42 -28 -68 -37 -26 -9 -47 -20 -47 -25 0 -5 -20
-18 -44 -29 -24 -10 -47 -23 -50 -29 -4 -6 -28 -21 -54 -34 -77 -38 -195 -108
-225 -133 -16 -13 -34 -24 -42 -24 -23 0 -178 -124 -187 -150 -2 -6 -35 -18
-73 -26 -39 -8 -81 -23 -95 -34 -14 -11 -37 -25 -52 -31 -15 -6 -34 -21 -43
-35 -8 -13 -24 -24 -36 -24 -11 0 -22 -7 -25 -15 -3 -8 -16 -17 -27 -21 -12
-4 -44 -22 -72 -40 -27 -19 -55 -34 -61 -34 -6 0 -18 -8 -28 -18 -9 -11 -34
-24 -55 -30 -21 -7 -52 -25 -69 -42 -18 -16 -40 -30 -50 -30 -10 0 -45 -20
-76 -45 -32 -25 -66 -45 -75 -45 -9 0 -48 -23 -86 -51 -39 -28 -88 -60 -110
-71 -22 -11 -44 -27 -48 -34 -4 -8 -13 -14 -20 -14 -6 0 -37 -15 -67 -34 -31
-19 -69 -38 -84 -42 -16 -4 -36 -14 -45 -23 -9 -9 -53 -36 -99 -59 -45 -24
-82 -47 -82 -52 0 -6 -15 -16 -32 -23 -18 -8 -70 -48 -116 -90 -100 -92 -141
-108 -208 -82 -81 31 -122 111 -90 173 18 35 52 62 78 62 9 0 22 8 27 18 13
24 123 92 150 92 11 0 28 8 38 19 10 10 27 21 38 25 11 3 45 26 75 51 30 25
81 55 113 67 31 11 57 25 57 29 0 5 21 19 48 32 26 13 68 39 94 59 25 19 58
38 73 42 15 4 44 20 64 36 20 15 72 48 116 72 44 24 118 72 164 107 46 34 100
69 120 77 20 8 52 28 71 43 20 16 64 43 98 60 34 17 62 35 62 40 0 5 15 14 34
21 18 6 44 20 57 31 49 41 205 139 239 150 19 6 40 17 45 24 6 7 29 18 51 24
50 13 158 82 168 106 11 31 -62 12 -133 -33 -35 -23 -87 -50 -116 -61 -30 -11
-83 -40 -118 -63 -66 -45 -102 -67 -171 -106 -23 -13 -50 -32 -61 -42 -11 -10
-47 -32 -81 -48 -34 -17 -75 -42 -91 -56 -17 -14 -38 -26 -46 -26 -8 0 -41
-21 -73 -46 -33 -26 -78 -55 -100 -65 -23 -10 -47 -26 -54 -34 -8 -9 -29 -23
-49 -31 -19 -8 -58 -32 -86 -52 -27 -21 -70 -50 -95 -64 -101 -57 -267 -163
-298 -189 -18 -16 -39 -29 -46 -29 -20 0 -180 -82 -189 -97 -4 -7 -15 -13 -24
-13 -8 0 -38 -18 -65 -40 -28 -22 -56 -40 -63 -40 -7 0 -15 -6 -18 -14 -3 -8
-26 -23 -50 -34 -24 -11 -48 -25 -51 -31 -4 -6 -23 -11 -42 -11 -42 0 -64 22
-99 97 l-23 52 53 50 c29 27 75 61 103 74 27 13 99 58 159 99 60 41 121 78
136 82 15 3 27 11 27 17 0 5 20 19 45 30 25 11 45 24 45 29 0 5 15 12 34 16
19 3 43 15 53 26 10 11 41 31 70 43 28 13 74 42 103 64 28 23 55 41 60 41 4 0
27 16 50 35 23 19 50 35 61 35 10 0 28 9 40 21 11 11 37 27 56 36 19 8 64 36
100 64 35 27 72 49 83 49 10 0 44 20 77 44 32 24 74 51 93 61 19 9 49 28 67
41 17 13 40 24 51 24 10 0 31 11 46 25 15 14 31 25 35 25 5 0 37 21 72 47 35
26 84 55 109 64 49 19 241 124 291 160 17 12 57 44 88 72 31 27 70 55 87 63
17 7 36 20 44 28 7 9 18 16 25 16 6 0 31 13 56 29 24 16 56 32 71 36 14 4 34
15 44 26 9 10 25 19 34 19 10 0 23 7 30 15 7 8 50 38 96 66 46 27 107 68 135
91 28 22 77 51 108 63 74 29 145 68 182 99 17 14 38 26 48 26 10 0 26 9 36 20
10 11 48 37 84 59 36 21 119 70 184 110 140 86 149 90 210 90 l47 1 0 -79z
m650 69 c0 -5 -9 -10 -20 -10 -11 0 -20 5 -20 10 0 6 9 10 20 10 11 0 20 -4
20 -10z m-4012 -94 c35 -31 46 -55 31 -72 -25 -30 -100 -13 -156 36 -19 17
-40 30 -48 30 -8 0 -15 7 -15 15 0 21 14 19 59 -9 40 -26 51 -25 51 5 0 34 38
31 78 -5z m4133 15 l24 -19 -58 -7 c-39 -5 -62 -4 -70 4 -18 18 6 32 69 40 7
0 22 -8 35 -18z m-651 -91 c0 -5 -9 -10 -20 -10 -11 0 -20 5 -20 10 0 6 9 10
20 10 11 0 20 -4 20 -10z m599 -110 c33 0 131 -178 131 -236 0 -92 -114 -15
-176 119 l-25 56 21 38 c11 21 20 45 21 53 0 9 4 6 9 -7 5 -13 14 -23 19 -23z
m-4929 -36 c0 -8 -4 -14 -9 -14 -11 0 -22 26 -14 34 9 9 23 -3 23 -20z m660 6
c0 -13 -28 -25 -38 -16 -3 4 0 11 8 16 20 13 30 12 30 0z m4166 -135 c-5 -18
-12 -25 -24 -23 -21 4 -28 44 -11 64 19 23 44 -6 35 -41z m-3683 -127 c2 -7 2
-19 -1 -26 -3 -10 -9 -9 -23 4 -11 9 -19 21 -19 26 0 13 38 9 43 -4z m-988
-50 c4 -17 3 -28 -3 -28 -12 0 -22 24 -22 53 0 27 16 11 25 -25z m4945 23 c0
-5 14 -14 30 -21 18 -8 30 -20 30 -31 0 -11 7 -19 14 -19 20 0 53 -47 112
-155 26 -49 72 -130 101 -179 29 -50 53 -96 53 -103 0 -7 4 -13 10 -13 5 0 17
-14 26 -32 9 -17 38 -59 64 -92 26 -34 55 -76 64 -93 9 -18 21 -33 26 -33 5 0
13 -12 16 -27 11 -48 122 -257 201 -380 41 -65 83 -134 92 -153 9 -19 22 -41
29 -50 7 -8 26 -31 42 -51 17 -20 30 -46 30 -58 0 -30 18 -61 34 -61 29 0 58
-36 67 -83 12 -67 133 -280 292 -514 23 -34 78 -126 122 -203 44 -78 92 -152
108 -165 15 -13 27 -31 27 -40 0 -9 8 -29 19 -43 10 -15 35 -59 54 -99 20 -39
59 -99 88 -133 28 -34 73 -103 99 -153 108 -210 300 -526 341 -563 10 -9 19
-24 19 -31 0 -25 107 -220 146 -269 36 -43 68 -107 101 -202 13 -35 13 -47 3
-72 -7 -17 -18 -30 -26 -30 -21 0 -79 63 -115 127 -18 32 -48 77 -66 101 -18
24 -54 84 -80 135 -26 51 -57 101 -68 113 -11 11 -28 36 -37 55 -10 19 -26 45
-37 59 -10 14 -49 79 -86 145 -37 66 -84 143 -105 170 -21 28 -46 70 -56 95
-9 25 -34 69 -56 98 -21 29 -47 72 -58 97 -11 25 -49 86 -85 136 -36 50 -90
137 -121 193 -31 55 -82 144 -113 196 -30 52 -62 106 -69 120 -7 14 -29 41
-48 61 -19 19 -39 51 -44 71 -10 36 -148 269 -205 348 -19 25 -37 59 -41 75
-4 17 -13 37 -20 45 -7 9 -28 43 -45 75 -38 72 -119 193 -159 239 -16 18 -33
51 -38 72 -6 28 -14 40 -31 44 -15 3 -27 17 -35 41 -16 47 -84 171 -146 265
-27 42 -52 92 -56 112 -4 20 -15 48 -25 61 -11 13 -19 28 -19 34 0 6 -33 62
-74 126 -40 64 -83 136 -96 161 -12 25 -39 68 -60 95 -20 28 -65 104 -99 170
-34 66 -71 127 -81 137 -25 21 -25 29 1 62 20 26 39 34 39 17z m-197 -42 c15
-7 47 -50 83 -112 32 -56 87 -139 121 -184 64 -85 103 -148 103 -170 0 -7 11
-20 25 -29 14 -9 25 -22 25 -29 0 -7 9 -15 20 -18 14 -4 20 -14 20 -34 0 -15
11 -53 23 -84 23 -54 128 -222 147 -234 5 -3 19 -25 30 -48 11 -23 36 -64 55
-90 19 -26 44 -80 57 -119 16 -49 36 -86 64 -117 22 -25 43 -54 47 -63 3 -10
13 -18 21 -18 18 0 36 -30 36 -61 0 -12 10 -36 23 -53 13 -17 49 -77 81 -133
31 -56 74 -121 96 -144 22 -24 40 -50 40 -59 0 -9 20 -48 44 -88 25 -39 47
-80 51 -91 3 -11 28 -50 55 -86 26 -37 51 -81 54 -99 9 -44 34 -75 45 -57 11
18 26 -8 34 -61 7 -46 101 -216 168 -303 27 -35 49 -69 49 -75 0 -19 31 -73
72 -125 40 -52 110 -165 182 -295 23 -41 58 -101 79 -132 20 -32 48 -80 62
-108 14 -27 54 -95 90 -150 35 -54 73 -116 83 -137 41 -82 192 -330 224 -368
82 -98 102 -197 50 -253 -15 -16 -26 -36 -23 -43 3 -12 1 -12 -11 -1 -9 7 -39
58 -68 113 -29 55 -68 112 -85 127 -18 15 -36 37 -39 50 -4 12 -12 22 -17 22
-5 0 -9 15 -9 34 0 18 -7 39 -15 46 -8 7 -15 18 -15 25 0 6 -41 74 -91 151
-94 142 -156 245 -224 369 -21 39 -59 99 -85 135 -26 36 -62 91 -80 123 -18
32 -43 65 -56 73 -15 10 -26 32 -33 65 -13 58 -35 104 -53 112 -8 2 -37 43
-66 91 -29 47 -57 86 -62 86 -6 0 -10 11 -10 25 0 14 -4 25 -10 25 -14 0 -40
55 -40 83 0 14 -17 46 -39 73 -44 56 -94 151 -87 163 3 5 -4 17 -15 27 -11 10
-36 45 -56 78 -20 34 -51 82 -70 107 -18 26 -44 71 -57 101 -13 30 -31 59 -39
66 -8 7 -18 28 -21 47 -4 19 -17 47 -30 62 -13 15 -41 60 -63 98 -81 142 -237
401 -263 435 -15 19 -33 51 -40 70 -8 19 -34 69 -59 110 -24 41 -60 109 -79
150 -19 41 -55 101 -79 132 -24 32 -50 73 -59 93 -8 19 -18 35 -23 35 -6 0
-13 10 -17 23 -3 12 -14 29 -24 39 -9 9 -50 76 -90 150 -40 73 -96 165 -125
203 -65 88 -82 121 -96 186 -10 47 -9 54 7 66 22 16 26 16 57 2z m-5108 -260
c11 -17 0 -20 -21 -4 -17 13 -17 14 -2 15 9 0 20 -5 23 -11z m5112 -133 c23
-26 46 -67 57 -101 11 -35 31 -72 52 -93 19 -19 34 -39 34 -44 0 -5 54 -94
120 -199 66 -105 129 -208 140 -230 12 -22 46 -79 78 -128 31 -49 70 -113 86
-142 27 -51 29 -53 39 -31 17 37 27 25 27 -30 0 -67 40 -155 116 -254 30 -39
59 -88 65 -108 15 -54 54 -95 105 -107 48 -12 54 -22 24 -41 -11 -7 -20 -19
-20 -26 0 -19 36 -86 55 -102 9 -8 28 -36 41 -62 14 -27 31 -51 39 -54 7 -3
17 -24 20 -46 4 -24 17 -51 31 -63 13 -12 24 -26 24 -31 0 -5 13 -25 29 -44
44 -54 89 -140 101 -194 7 -33 24 -64 51 -94 21 -25 62 -86 91 -136 28 -50 68
-113 88 -141 45 -62 60 -89 60 -111 0 -9 29 -55 64 -103 35 -47 80 -117 101
-156 21 -38 63 -110 95 -160 31 -49 63 -106 70 -125 8 -19 26 -49 40 -66 15
-17 47 -67 70 -110 24 -44 56 -98 72 -121 15 -23 32 -52 37 -65 5 -14 27 -53
50 -87 22 -34 47 -87 56 -116 8 -30 20 -57 26 -61 6 -3 20 -25 30 -48 35 -77
17 -112 -31 -61 -27 29 -45 32 -58 9 -7 -13 -11 -9 -16 21 -16 84 -80 195
-113 195 -15 0 -17 -16 -3 -25 21 -13 9 -26 -22 -23 -43 4 -49 37 -14 78 28
34 25 57 -11 71 -15 5 -26 20 -29 38 -4 16 -12 32 -19 35 -7 2 -21 26 -31 53
-10 26 -42 81 -71 121 -28 40 -63 96 -77 126 -27 58 -112 142 -152 152 -28 7
-33 44 -9 64 14 12 12 17 -17 47 -24 25 -29 36 -20 42 10 6 10 10 -3 21 -8 7
-15 18 -15 24 0 13 -110 185 -147 229 -12 16 -23 41 -23 55 0 67 -100 182
-158 182 -31 0 -38 25 -17 64 l18 34 -47 76 c-66 106 -156 282 -156 306 0 26
-35 43 -77 37 -31 -5 -33 -4 -27 16 11 33 6 63 -17 110 -35 68 -100 166 -115
175 -9 5 -17 25 -19 45 -2 22 -22 67 -49 111 -25 41 -53 90 -61 109 -8 20 -27
42 -41 49 -16 8 -31 28 -39 50 -15 46 -147 286 -194 355 -20 29 -47 57 -62 63
-17 8 -29 23 -37 53 -14 53 -49 110 -62 102 -6 -4 -8 -11 -5 -16 9 -14 -25
-23 -38 -10 -8 8 -5 17 12 35 17 18 21 30 16 48 -14 45 -68 144 -129 238 -34
52 -68 108 -76 124 -19 38 -37 44 -42 14 -6 -35 -37 72 -45 154 -10 113 8 121
84 34z m-5109 -158 c-7 -19 -38 -22 -38 -4 0 10 9 16 21 16 12 0 19 -5 17 -12z
m4921 -17 c14 -9 7 -31 -9 -31 -22 0 -61 21 -55 30 8 12 45 13 64 1z m-4879
-24 c0 -8 -3 -17 -7 -20 -9 -9 -34 13 -27 24 8 14 34 11 34 -4z m4100 -63 c0
-8 -7 -14 -15 -14 -10 0 -15 10 -15 26 0 22 2 25 15 14 8 -7 15 -19 15 -26z
m760 26 c0 -6 -7 -13 -15 -16 -20 -8 -48 3 -40 16 8 13 55 13 55 0z m-5069
-50 c54 -15 165 -136 219 -238 24 -45 68 -113 97 -150 29 -37 63 -90 77 -119
42 -90 133 -200 188 -227 19 -10 23 -20 24 -56 1 -64 0 -60 43 -118 22 -29 63
-95 92 -147 28 -51 69 -115 90 -141 22 -25 39 -50 39 -55 0 -20 -50 -39 -118
-45 -41 -4 -77 -13 -83 -20 -20 -24 -39 -16 -39 16 0 31 -34 62 -42 38 -8 -22
-118 84 -159 152 -21 36 -52 83 -68 105 -50 69 -136 207 -171 274 -19 35 -42
68 -51 74 -9 6 -15 17 -12 24 3 7 0 13 -6 13 -6 0 -17 12 -23 28 -7 15 -40 72
-73 127 -34 55 -77 129 -97 165 -20 36 -46 73 -57 82 -12 10 -21 27 -21 38 0
11 -12 44 -26 73 -31 63 -28 103 9 110 43 8 132 7 168 -3z m5136 -121 c6 -6 9
-18 6 -25 -11 -28 -63 -9 -63 23 0 16 42 17 57 2z m2437 -4 c3 -9 0 -15 -9
-15 -8 0 -15 7 -15 15 0 8 4 15 9 15 5 0 11 -7 15 -15z m-2604 -40 c0 -8 -7
-15 -15 -15 -16 0 -20 12 -8 23 11 12 23 8 23 -8z m2817 -10 c8 -22 -6 -33
-17 -15 -13 20 -12 30 0 30 6 0 13 -7 17 -15z m-2509 -108 c4 -20 -25 -34 -40
-19 -15 15 -1 44 19 40 10 -2 19 -11 21 -21z m115 -44 c-7 -2 -19 -2 -25 0 -7
3 -2 5 12 5 14 0 19 -2 13 -5z m-3135 -589 c14 -10 22 -24 22 -44 0 -17 7 -33
18 -39 15 -9 15 -10 -4 -11 -27 0 -45 15 -84 74 l-33 49 29 -7 c16 -4 39 -14
52 -22z m3446 1 c3 -8 3 -22 0 -30 -8 -21 -34 0 -34 26 0 23 25 25 34 4z m-34
-118 c0 -19 -21 -37 -42 -37 -25 0 -23 16 4 34 27 19 38 20 38 3z m-3852 -33
c52 -14 11 -54 -55 -54 -31 1 -35 3 -20 11 9 5 17 16 17 24 0 7 6 16 13 18 17
7 19 7 45 1z m-160 -61 c-2 -20 -9 -29 -25 -31 -27 -4 -29 5 -7 36 21 30 36
28 32 -5z m4012 -62 c0 -12 -20 -25 -27 -18 -7 7 6 27 18 27 5 0 9 -4 9 -9z
m324 -22 c-8 -14 -34 -11 -34 4 0 8 3 17 7 20 9 9 34 -13 27 -24z m-5019 -19
c7 -12 -12 -50 -26 -50 -13 0 -22 27 -15 45 6 17 32 20 41 5z m365 -30 c0 -11
-4 -20 -9 -20 -14 0 -23 18 -16 30 10 17 25 11 25 -10z m1173 -50 c14 -11 36
-24 49 -29 22 -8 22 -9 -9 -15 -17 -4 -37 -14 -44 -22 -25 -31 -59 -3 -59 49
0 42 22 49 63 17z m-1649 -33 c6 -15 6 -30 2 -34 -10 -10 -36 26 -36 50 0 26
23 16 34 -16z m186 -12 c10 -12 10 -15 -3 -15 -8 0 -20 7 -27 15 -10 12 -10
15 3 15 8 0 20 -7 27 -15z m1545 -45 c3 -5 -3 -10 -15 -10 -12 0 -18 5 -15 10
3 6 10 10 15 10 5 0 12 -4 15 -10z m5982 -81 c17 -17 4 -39 -22 -39 -26 0 -50
24 -40 40 8 13 48 13 62 -1z m63 -65 c0 -8 -7 -14 -15 -14 -15 0 -21 21 -9 33
10 9 24 -2 24 -19z m-2803 -16 c-3 -7 -5 -2 -5 12 0 14 2 19 5 13 2 -7 2 -19
0 -25z m2783 -151 c0 -37 -25 -10 -28 29 -2 39 -2 39 13 14 8 -14 14 -33 15
-43z m-20 -53 c0 -23 -20 -55 -31 -49 -13 9 -11 39 3 53 17 17 28 15 28 -4z
m-5802 -6 c-6 -17 -55 -44 -64 -35 -11 11 26 47 48 47 11 0 18 -5 16 -12z
m162 -80 c0 -10 -4 -18 -9 -18 -16 0 -23 19 -16 41 6 17 9 19 16 8 5 -8 9 -22
9 -31z m5775 17 c0 -22 -31 -33 -47 -17 -17 17 -1 44 24 40 15 -2 23 -10 23
-23z m-5932 -22 c-7 -2 -21 -2 -30 0 -10 3 -4 5 12 5 17 0 24 -2 18 -5z m6017
-53 c0 -19 -7 -33 -20 -40 -41 -22 -56 24 -20 60 26 26 40 18 40 -20z m68
-142 c-3 -7 -11 -13 -18 -13 -7 0 -15 6 -17 13 -3 7 4 12 17 12 13 0 20 -5 18
-12z m-5807 -54 c7 -9 23 -20 36 -25 13 -5 23 -16 23 -24 0 -21 -29 -31 -49
-16 -9 6 -30 18 -48 26 -39 18 -50 34 -32 46 22 14 55 10 70 -7z m5708 -10 c3
-16 1 -17 -13 -5 -19 16 -21 34 -3 29 6 -3 14 -13 16 -24z m41 -49 c0 -8 -7
-15 -15 -15 -8 0 -15 7 -15 15 0 8 7 15 15 15 8 0 15 -7 15 -15z m113 -49 c19
-13 43 -26 53 -28 22 -4 31 -35 14 -52 -8 -8 -15 -6 -26 8 -13 18 -14 17 -14
-20 0 -51 -14 -64 -66 -64 -34 0 -47 5 -63 26 -26 33 -27 56 -1 79 14 12 28
16 50 12 35 -8 38 1 9 37 -27 34 -5 35 44 2z m-6013 -115 c0 -23 -16 -36 -25
-21 -9 14 1 40 15 40 5 0 10 -9 10 -19z m6210 -141 c23 -44 24 -50 11 -50 -11
0 -51 62 -51 79 0 24 21 9 40 -29z m-2653 -96 c1 -5 -2 -16 -7 -24 -12 -20
-35 2 -26 25 6 17 27 16 33 -1z m2578 -5 c8 -23 1 -34 -14 -24 -13 8 -15 45
-2 45 5 0 13 -9 16 -21z m-2335 -36 c0 -13 -3 -13 -15 -3 -8 7 -12 16 -9 21 8
13 24 1 24 -18z m-3640 -12 c0 -22 -25 -45 -40 -36 -13 8 -13 28 2 43 18 18
38 14 38 -7z m5980 -36 c13 -15 6 -35 -12 -35 -14 0 -48 30 -48 42 0 14 47 9
60 -7z m-5764 -62 c8 -30 -2 -41 -24 -27 -22 14 -37 57 -28 80 7 18 9 18 27
-5 11 -13 22 -34 25 -48z m5979 -41 l30 -57 56 -5 c31 -3 64 -11 73 -19 24
-20 48 -69 40 -82 -3 -6 10 -34 29 -62 59 -86 59 -126 1 -127 -12 0 -27 -7
-34 -15 -7 -8 -37 -22 -67 -31 -29 -9 -61 -24 -71 -33 -9 -10 -27 -24 -39 -30
-13 -6 -23 -18 -23 -26 0 -8 -9 -15 -21 -15 -26 0 -56 -16 -97 -51 -18 -16
-41 -29 -51 -29 -10 0 -24 -7 -31 -15 -6 -8 -22 -17 -33 -21 -12 -4 -40 -22
-61 -40 -22 -19 -45 -34 -52 -34 -6 0 -14 -8 -17 -19 -3 -13 -21 -22 -56 -31
-28 -6 -53 -16 -56 -20 -3 -5 -29 -20 -58 -33 -28 -13 -86 -54 -127 -91 -42
-37 -95 -73 -120 -83 -25 -9 -50 -22 -56 -29 -5 -7 -22 -16 -37 -19 -14 -4
-48 -22 -74 -41 -26 -19 -53 -34 -59 -34 -5 0 -25 -11 -43 -24 -19 -14 -47
-28 -63 -31 -16 -4 -32 -13 -35 -21 -3 -8 -13 -14 -22 -14 -10 0 -30 -13 -46
-30 -16 -16 -36 -30 -45 -30 -9 0 -48 -22 -86 -49 -38 -26 -88 -58 -110 -69
-47 -24 -62 -48 -35 -57 21 -6 66 8 76 25 4 7 26 20 49 29 23 10 72 41 109 70
38 28 78 51 90 51 13 0 30 9 40 20 9 11 25 20 35 20 10 0 32 12 49 28 17 15
50 33 74 40 23 7 56 24 72 38 15 13 33 24 39 24 5 0 35 20 66 43 32 24 73 50
92 57 19 7 49 26 65 42 17 15 38 28 48 28 9 0 21 9 27 20 6 11 17 20 26 20 8
0 38 16 67 35 28 19 57 35 63 35 6 0 18 7 25 17 8 9 33 25 57 35 23 10 42 23
42 27 0 5 14 14 32 20 17 6 46 23 65 37 18 14 47 30 63 36 17 5 30 14 30 19 0
5 17 16 37 24 21 9 44 22 53 30 8 7 40 23 70 35 30 12 64 30 76 41 11 10 25
19 32 19 6 0 25 14 42 30 24 23 40 30 71 30 41 0 72 12 97 37 14 14 102 19
102 6 -1 -28 -55 -63 -94 -63 -14 0 -26 -5 -26 -11 0 -7 24 -51 54 -98 67
-107 101 -174 116 -229 14 -55 -2 -85 -57 -102 -21 -7 -47 -20 -58 -30 -11 -9
-42 -23 -68 -30 -27 -7 -63 -23 -80 -34 -18 -12 -44 -27 -59 -33 -16 -7 -28
-17 -28 -21 0 -5 -21 -17 -46 -27 -25 -10 -68 -37 -95 -61 -27 -24 -54 -44
-60 -44 -5 0 -32 -16 -60 -35 -28 -19 -56 -35 -61 -35 -6 0 -23 -11 -40 -25
-16 -14 -35 -25 -42 -25 -6 0 -35 -25 -63 -55 -29 -30 -61 -55 -71 -55 -10 0
-40 -11 -65 -25 -25 -13 -66 -29 -89 -35 -24 -7 -52 -20 -63 -30 -11 -9 -30
-23 -42 -29 -13 -6 -23 -18 -23 -26 0 -7 -22 -21 -50 -30 -27 -9 -50 -20 -50
-25 0 -5 -21 -16 -47 -26 -27 -10 -63 -29 -82 -41 -19 -13 -39 -23 -46 -23 -6
0 -20 -9 -30 -20 -9 -10 -39 -26 -65 -35 -27 -9 -54 -22 -60 -30 -7 -8 -42
-31 -78 -51 -37 -20 -94 -56 -127 -79 -33 -23 -74 -49 -92 -58 -17 -9 -37 -23
-45 -30 -8 -8 -34 -24 -58 -36 -84 -40 -146 -76 -196 -113 -27 -20 -62 -40
-77 -43 -15 -4 -46 -22 -69 -41 -24 -19 -50 -34 -59 -34 -8 0 -30 -11 -49 -25
-19 -14 -39 -25 -45 -25 -20 0 -67 -57 -63 -77 7 -37 43 -25 119 38 40 34 99
74 129 87 30 14 58 31 63 38 4 7 24 18 45 25 20 6 49 22 64 35 16 12 38 26 50
29 13 4 37 17 53 30 17 12 45 26 63 30 18 4 36 13 39 21 3 8 12 14 19 14 8 0
32 18 54 40 22 22 46 40 55 40 9 0 18 7 21 15 4 8 24 18 45 21 21 4 62 22 91
40 29 19 58 34 65 34 7 0 18 9 25 20 7 11 20 20 29 20 8 0 48 24 87 54 39 30
88 60 109 67 21 6 52 22 68 35 17 12 61 36 99 53 38 17 82 42 98 56 16 14 35
25 42 25 7 0 35 16 62 35 27 19 57 35 66 35 9 0 21 6 25 14 9 16 176 117 235
142 20 8 38 23 41 33 2 10 22 22 46 29 22 7 41 19 41 26 0 8 16 17 37 21 21 4
54 22 75 41 21 19 46 34 56 34 11 0 27 9 36 19 10 11 29 22 44 26 15 4 54 26
89 51 34 24 73 48 88 54 14 5 41 21 59 35 41 31 90 42 112 24 30 -25 75 -129
72 -166 -3 -32 -7 -37 -52 -54 -28 -10 -54 -25 -58 -34 -5 -8 -15 -15 -22 -15
-7 0 -29 -11 -48 -24 -20 -13 -53 -29 -74 -36 -22 -7 -48 -20 -59 -30 -11 -9
-40 -25 -65 -34 -25 -10 -71 -38 -102 -62 -32 -25 -71 -50 -88 -55 -16 -6 -30
-15 -30 -20 0 -5 -16 -15 -35 -23 -19 -8 -50 -26 -68 -40 -19 -15 -38 -26 -44
-26 -6 0 -22 -9 -36 -20 -14 -12 -41 -26 -59 -32 -18 -6 -48 -24 -66 -40 -18
-15 -40 -28 -49 -28 -8 0 -31 -13 -50 -30 -18 -16 -40 -30 -48 -30 -8 0 -15
-4 -15 -9 0 -6 -36 -29 -81 -52 -44 -23 -87 -53 -96 -66 -8 -12 -21 -23 -29
-23 -16 0 -161 -76 -261 -136 -39 -25 -86 -47 -103 -51 -18 -3 -34 -12 -37
-19 -2 -6 -17 -17 -33 -24 -15 -6 -30 -20 -33 -30 -7 -26 -60 -57 -142 -81
-38 -12 -102 -42 -141 -68 -80 -52 -123 -78 -171 -104 -18 -9 -33 -23 -33 -30
0 -11 -128 -77 -180 -92 -14 -4 -38 -18 -53 -31 -16 -13 -33 -24 -37 -24 -5 0
-23 -12 -40 -27 -84 -77 -182 -140 -235 -150 -16 -4 -36 -14 -45 -24 -8 -9
-51 -36 -95 -59 -44 -23 -87 -47 -95 -54 -8 -7 -29 -18 -47 -25 -18 -7 -60
-33 -94 -57 -35 -24 -70 -44 -78 -44 -9 0 -36 -14 -61 -30 -25 -16 -50 -30
-56 -30 -6 0 -35 -17 -65 -39 -30 -21 -73 -48 -96 -60 -24 -12 -43 -25 -43
-30 0 -5 -15 -14 -32 -22 -18 -7 -46 -23 -61 -36 -16 -13 -34 -23 -40 -23 -7
0 -40 -22 -75 -49 -34 -27 -86 -57 -115 -67 -28 -9 -61 -24 -72 -34 -11 -10
-30 -23 -42 -29 -13 -6 -23 -18 -23 -25 0 -7 -14 -16 -31 -20 -18 -3 -42 -17
-55 -31 -12 -13 -43 -30 -69 -36 -29 -7 -75 -33 -118 -65 -39 -30 -79 -54 -88
-54 -10 0 -23 -9 -28 -19 -6 -10 -31 -26 -57 -35 -25 -8 -85 -44 -132 -79 -48
-35 -127 -87 -177 -115 -88 -50 -211 -140 -203 -148 8 -8 106 26 118 41 7 8
19 15 27 15 8 0 35 16 60 35 25 19 55 35 67 35 26 0 41 10 48 31 3 8 24 21 47
28 23 6 74 40 118 77 47 38 100 73 133 85 30 11 62 26 70 33 8 8 27 16 42 20
15 3 42 19 60 35 18 15 43 31 56 35 12 4 22 12 22 17 0 5 20 18 44 28 24 11
46 26 49 34 3 8 18 17 35 20 16 3 52 25 81 47 29 23 78 53 109 67 32 14 61 31
65 39 4 8 15 14 24 14 26 0 132 74 132 93 1 9 7 17 14 17 21 0 171 75 185 93
7 9 27 19 43 22 17 4 33 13 35 20 3 7 16 16 28 19 12 3 52 28 89 56 36 27 70
50 74 50 4 0 35 18 68 40 33 22 67 40 76 40 9 0 28 9 42 20 14 11 42 27 61 35
20 9 36 19 36 24 0 4 20 16 44 25 24 9 47 24 50 31 3 8 12 15 20 15 8 0 36 16
61 36 26 20 63 38 81 41 19 3 34 12 34 19 0 8 23 20 54 29 29 9 63 27 76 40
13 14 29 25 37 25 7 0 21 9 30 20 10 11 23 20 29 20 7 0 30 15 53 34 24 20 57
37 82 41 22 4 43 13 45 20 3 7 18 18 34 25 15 6 30 21 33 32 3 11 15 22 26 25
11 3 50 20 87 39 37 19 76 34 85 34 9 0 19 7 22 15 4 8 22 21 42 29 19 8 38
22 41 31 4 8 18 15 34 15 26 0 76 28 131 75 15 12 52 32 83 45 31 12 56 29 56
36 0 8 10 14 24 14 13 0 46 18 72 40 54 44 138 90 166 90 9 0 22 9 28 19 5 11
25 24 44 31 19 6 40 17 46 25 6 8 33 21 60 30 29 10 50 23 53 34 2 11 18 22
35 25 16 4 51 20 76 37 26 16 53 29 61 29 8 0 15 7 15 15 0 8 21 23 46 34 25
12 67 38 92 59 26 21 69 45 95 52 56 15 159 75 234 137 32 25 64 43 79 43 13
0 27 7 30 14 3 8 28 22 55 31 29 10 56 27 66 41 8 13 23 24 32 24 9 0 32 8 51
18 33 16 36 16 53 0 9 -10 28 -18 42 -18 36 0 39 -19 21 -104 -16 -71 -49
-126 -76 -126 -6 0 -34 -16 -63 -35 -28 -19 -61 -35 -72 -35 -11 0 -28 -9 -38
-20 -9 -11 -23 -20 -30 -20 -7 0 -40 -21 -73 -46 -32 -25 -86 -58 -120 -74
-33 -15 -63 -34 -67 -43 -3 -8 -21 -18 -39 -22 -18 -4 -46 -17 -63 -30 -16
-12 -42 -25 -56 -28 -15 -4 -48 -25 -75 -47 -27 -22 -66 -46 -87 -52 -21 -6
-44 -20 -51 -30 -7 -10 -36 -25 -65 -33 -31 -10 -51 -21 -51 -30 0 -8 -7 -15
-16 -15 -9 0 -34 -16 -55 -35 -21 -19 -67 -49 -101 -66 -35 -17 -72 -39 -83
-48 -11 -10 -41 -25 -66 -35 -25 -9 -65 -32 -87 -52 -23 -19 -68 -44 -100 -55
-33 -11 -70 -31 -82 -44 -13 -14 -33 -25 -45 -25 -11 0 -32 -13 -47 -30 -14
-16 -35 -30 -46 -30 -11 0 -26 -7 -33 -17 -17 -19 -166 -93 -190 -93 -9 0 -19
-6 -22 -14 -3 -8 -44 -37 -90 -65 -80 -48 -104 -71 -90 -85 15 -15 52 -3 76
24 15 17 33 30 40 30 6 0 34 15 60 34 26 19 59 37 72 40 14 4 25 11 25 16 0 5
25 17 55 25 30 9 58 22 62 30 5 7 29 23 55 34 26 11 71 38 100 59 29 22 71 45
92 52 22 7 60 26 85 41 25 16 49 29 55 29 5 0 35 20 66 44 57 45 166 108 208
121 13 4 33 16 44 27 11 11 59 39 107 61 47 22 104 55 126 72 22 18 55 40 74
50 19 9 52 30 74 46 22 16 46 29 53 29 7 0 26 11 42 25 17 14 44 28 61 31 16
4 37 17 46 30 8 13 22 24 29 24 7 0 24 8 37 18 13 10 43 24 67 31 23 6 59 23
79 36 20 14 42 25 49 25 8 0 19 9 26 20 7 11 17 20 23 20 5 0 39 18 75 40 36
22 72 40 80 40 9 0 23 9 33 20 13 15 29 20 71 20 l55 0 6 -53 c12 -95 -26
-177 -82 -177 -13 0 -23 -5 -23 -10 0 -6 -15 -20 -34 -30 -31 -19 -55 -60 -71
-120 -9 -33 -33 -70 -45 -70 -6 0 -10 22 -10 49 0 61 -20 83 -47 52 -9 -12
-25 -21 -35 -21 -10 0 -47 -16 -84 -35 -36 -19 -72 -35 -79 -35 -13 0 -43 -24
-101 -80 -12 -11 -26 -20 -32 -20 -6 0 -39 -18 -73 -40 -34 -22 -66 -40 -70
-40 -4 0 -36 -19 -71 -43 -46 -32 -64 -50 -66 -69 -4 -34 -31 -44 -55 -20 -18
19 -19 19 -46 -7 -39 -37 -110 -77 -148 -86 -18 -3 -33 -11 -33 -16 0 -5 -18
-16 -40 -25 -21 -9 -55 -35 -74 -59 -26 -31 -45 -45 -73 -50 -78 -14 -179 -86
-203 -145 -8 -19 -28 -38 -54 -50 -22 -11 -52 -27 -66 -35 -14 -8 -37 -16 -51
-19 -14 -3 -54 -27 -87 -53 -96 -75 -126 -90 -207 -107 -42 -9 -86 -23 -98
-31 -12 -8 -33 -15 -48 -15 -27 0 -84 -36 -159 -103 -25 -22 -73 -53 -107 -69
-35 -15 -63 -32 -63 -38 0 -5 -16 -12 -35 -16 -19 -3 -54 -23 -77 -44 -24 -20
-53 -42 -66 -49 -30 -16 -25 -47 6 -43 12 2 22 -2 22 -8 0 -25 -85 -113 -125
-130 -23 -10 -58 -32 -77 -49 -20 -17 -57 -41 -84 -52 -26 -12 -55 -29 -63
-39 -9 -9 -37 -25 -62 -34 -25 -9 -64 -31 -85 -50 -43 -36 -95 -66 -117 -66
-8 0 -33 -15 -57 -33 -23 -17 -58 -41 -77 -53 -38 -23 -133 -98 -200 -158 -30
-27 -43 -46 -40 -58 3 -11 0 -18 -9 -18 -8 0 -14 4 -14 8 0 5 -6 16 -13 26
-13 18 -15 18 -48 1 -19 -10 -58 -40 -87 -66 -30 -27 -61 -49 -70 -49 -16 -1
-16 -2 0 -14 22 -16 13 -26 -23 -26 -37 0 -79 -20 -79 -37 0 -7 5 -13 10 -13
14 0 13 -33 -2 -48 -18 -18 -25 -15 -32 13 -5 19 -13 25 -34 25 -29 0 -55 -15
-111 -63 -19 -17 -59 -40 -88 -53 -29 -13 -53 -28 -53 -33 0 -5 -13 -12 -29
-16 -16 -3 -55 -27 -87 -52 -33 -25 -77 -54 -99 -65 -21 -11 -47 -31 -58 -44
-10 -13 -28 -24 -40 -24 -12 0 -33 -7 -47 -15 -14 -8 -35 -19 -48 -25 -13 -5
-43 -24 -67 -40 -24 -17 -49 -30 -55 -30 -6 0 -22 -12 -35 -26 -23 -25 -46
-40 -125 -81 -19 -10 -41 -26 -48 -35 -7 -10 -18 -18 -23 -18 -6 0 -31 -15
-56 -32 -39 -28 -55 -33 -119 -36 -61 -4 -75 -1 -80 12 -8 20 40 96 61 96 8 0
39 22 69 50 58 51 104 80 131 80 25 0 88 35 115 65 39 43 102 82 161 101 30
10 74 33 98 52 24 18 66 44 93 58 26 13 48 28 48 33 0 4 19 13 41 20 23 7 52
23 65 36 24 25 49 40 122 75 23 12 42 27 42 35 0 8 16 16 39 20 22 3 66 26
104 53 108 77 189 126 239 142 25 9 84 44 131 78 90 65 222 142 247 142 8 0
35 14 59 30 24 17 51 30 60 30 21 0 91 70 91 92 0 24 -10 23 -53 -6 -19 -13
-46 -27 -58 -31 -13 -5 -42 -23 -65 -41 -23 -19 -48 -34 -56 -34 -9 0 -22 -7
-29 -16 -8 -9 -33 -25 -56 -35 -24 -10 -43 -22 -43 -27 0 -5 -17 -16 -37 -26
-49 -21 -126 -67 -150 -87 -10 -9 -36 -22 -58 -29 -22 -7 -47 -19 -55 -27 -8
-8 -35 -27 -60 -44 -25 -16 -60 -40 -78 -53 -18 -14 -62 -34 -97 -46 -42 -14
-81 -37 -118 -69 -30 -27 -67 -51 -82 -55 -15 -4 -51 -25 -80 -47 -28 -21 -74
-47 -101 -56 -27 -9 -59 -24 -72 -34 -13 -10 -37 -21 -54 -24 -18 -4 -32 -15
-35 -26 -3 -10 -13 -19 -23 -19 -9 0 -25 -10 -36 -21 -10 -12 -41 -33 -69 -46
-102 -50 -171 -90 -218 -126 -27 -20 -54 -37 -60 -37 -7 0 -17 -10 -22 -22 -7
-14 -26 -25 -58 -33 -26 -7 -58 -22 -70 -34 -29 -26 -57 -27 -87 -1 -13 11
-27 20 -32 20 -15 0 -29 52 -22 82 8 41 59 95 95 103 17 4 33 13 36 21 3 8 10
14 17 14 6 0 40 18 76 40 36 22 72 40 81 40 8 0 28 14 44 30 16 17 37 30 47
30 10 0 18 5 18 10 0 6 12 16 28 22 15 7 38 22 52 34 14 12 60 41 102 64 43
23 81 47 85 54 5 7 29 20 54 29 25 10 70 33 100 52 30 19 73 43 97 54 23 11
45 27 48 35 3 8 16 17 28 20 20 5 64 29 162 88 16 10 51 33 77 53 27 19 66 39
87 45 21 6 43 17 51 26 7 8 28 22 47 30 20 8 54 30 77 49 24 19 55 40 71 47
16 7 47 24 69 39 22 14 72 42 111 62 40 20 78 42 85 49 8 7 31 21 52 30 20 10
37 24 37 32 0 8 13 17 30 21 16 4 32 11 36 16 3 5 29 21 57 36 29 14 56 31 62
38 5 7 27 18 47 25 21 6 41 16 44 22 4 5 22 16 40 24 22 9 34 21 34 34 0 29
-19 34 -43 12 -25 -23 -125 -74 -179 -91 -21 -7 -38 -17 -38 -22 0 -5 -18 -18
-40 -29 -22 -11 -40 -27 -40 -35 0 -8 -5 -15 -11 -15 -6 0 -30 -13 -53 -29
-23 -16 -107 -64 -186 -106 -79 -42 -169 -93 -200 -114 -30 -20 -82 -52 -115
-70 -33 -19 -73 -44 -88 -57 -16 -13 -39 -24 -51 -24 -13 0 -34 -8 -47 -19
-13 -10 -40 -26 -59 -36 -19 -9 -44 -25 -55 -35 -11 -10 -45 -26 -75 -35 -30
-10 -84 -40 -119 -67 -35 -26 -68 -48 -74 -48 -5 0 -19 -9 -31 -21 -31 -30
-109 -79 -127 -79 -9 0 -36 -16 -60 -35 -24 -19 -49 -35 -56 -35 -7 0 -17 -9
-23 -20 -6 -11 -18 -20 -26 -20 -15 0 -137 -69 -164 -92 -8 -8 -56 -34 -107
-58 -51 -25 -92 -50 -93 -57 0 -16 -100 -70 -144 -78 -42 -8 -86 0 -86 17 0
18 -50 78 -66 78 -7 0 -14 -9 -14 -20 0 -23 -32 -43 -54 -34 -27 10 -18 33 23
58 50 32 59 46 32 53 -12 3 -21 10 -21 17 0 6 -27 56 -60 110 -33 55 -60 103
-60 107 0 4 -11 10 -25 13 -34 9 -32 26 3 26 40 1 102 32 175 88 36 27 81 52
100 56 19 4 38 13 41 21 3 8 12 15 20 15 9 0 29 13 46 30 16 16 47 34 69 40
22 6 67 31 101 56 34 25 72 50 85 56 28 12 38 34 27 53 -6 11 -11 12 -28 2
-66 -39 -91 -55 -133 -83 -26 -17 -56 -34 -68 -38 -12 -4 -28 -17 -36 -30 -9
-13 -30 -26 -47 -29 -17 -4 -51 -22 -74 -42 -23 -19 -68 -46 -99 -60 -34 -15
-57 -31 -57 -40 0 -9 -13 -21 -30 -26 -16 -6 -30 -15 -30 -20 0 -4 -19 -13
-42 -19 -113 -29 -126 -38 -85 -58 21 -10 21 -11 -6 -11 -33 -1 -67 15 -67 30
0 6 14 28 30 49 38 48 38 66 -2 121 l-31 43 46 41 c26 23 47 44 47 48 0 11
-91 8 -135 -4 -22 -6 -50 -20 -64 -30 -24 -19 -56 -25 -64 -12 -3 5 -8 29 -12
56 -7 42 -5 47 12 47 11 0 28 -9 38 -20 20 -22 24 -23 43 -11 19 11 -6 58 -61
118 l-41 45 54 -7 c46 -6 59 -4 80 13 14 11 48 31 75 45 102 51 149 78 155 86
3 5 22 16 43 25 22 9 41 25 44 36 3 11 17 23 32 26 14 4 35 15 46 24 11 10 43
29 70 43 28 14 67 39 89 56 21 17 55 33 75 37 45 8 81 26 105 53 11 12 25 21
33 21 7 0 23 15 34 34 12 21 30 36 48 39 42 9 115 69 119 97 l4 25 -24 -22
c-12 -11 -43 -27 -68 -34 -25 -7 -54 -21 -66 -31 -11 -10 -27 -18 -35 -18 -8
0 -37 -20 -64 -44 -28 -24 -59 -46 -70 -49 -11 -4 -45 -27 -75 -52 -30 -25
-75 -52 -100 -61 -25 -8 -56 -22 -70 -29 -14 -8 -47 -26 -75 -41 -27 -15 -67
-42 -89 -60 -21 -18 -52 -36 -68 -39 -17 -4 -34 -17 -40 -31 -6 -13 -20 -24
-30 -24 -11 0 -50 -14 -88 -30 -81 -35 -100 -37 -100 -10 0 13 17 32 47 53 26
17 60 45 76 61 15 16 42 32 60 35 26 6 31 11 29 29 -2 16 3 23 22 28 31 7 86
68 85 92 -1 23 -32 75 -44 73 -6 -1 -10 -9 -11 -19 -2 -35 -5 -37 -22 -14
l-18 23 -54 -42 c-30 -22 -77 -52 -105 -66 -27 -14 -61 -34 -74 -44 -13 -11
-34 -19 -46 -19 -12 0 -32 -9 -45 -20 -28 -24 -67 -26 -91 -4 -9 8 -45 22 -79
30 -109 25 -120 42 -75 114 14 22 25 46 25 55 0 8 5 15 10 15 6 0 10 15 10 34
0 44 13 53 34 21 20 -30 62 -33 97 -7 13 10 38 24 56 31 17 7 39 21 49 32 9
10 22 19 28 19 6 0 31 14 56 30 25 17 60 37 78 45 17 8 32 18 32 23 0 6 17 17
38 25 21 9 65 38 98 66 32 28 71 53 85 56 15 3 37 17 49 31 13 13 31 24 39 24
9 0 36 14 60 30 24 17 49 30 55 30 6 0 19 9 29 20 9 11 25 20 36 20 10 0 38
16 61 35 23 19 50 35 60 35 9 0 48 23 85 50 37 28 72 50 77 50 5 0 19 10 31
23 12 13 42 31 67 40 25 9 71 39 103 66 31 27 66 53 77 56 11 3 20 11 20 16 0
6 20 19 45 30 25 11 45 24 45 30 0 5 21 19 46 29 25 11 57 29 71 40 14 11 41
22 60 26 19 4 37 12 40 19 2 7 16 16 29 19 37 10 111 82 124 122 7 19 21 39
33 45 18 10 23 8 35 -10 14 -21 62 -30 62 -12 0 5 33 30 73 55 40 25 83 57 95
71 12 14 32 25 44 25 13 0 41 11 63 25 22 13 51 29 64 35 14 6 42 27 63 46 21
19 62 46 91 59 71 34 130 68 153 89 42 38 113 85 138 92 27 6 33 23 15 41 -7
7 4 12 40 15 34 3 59 13 81 31 20 18 43 27 65 27 26 0 39 7 55 30 12 17 26 30
32 30 13 0 32 16 104 89 48 48 59 54 104 59 43 4 53 9 61 28 11 31 27 30 39
-1 5 -14 17 -25 26 -25 9 0 31 -9 48 -20 18 -10 61 -23 96 -27 63 -8 65 -9 68
-38 1 -16 -4 -41 -11 -55 -11 -21 -22 -26 -77 -32 -40 -5 -69 -13 -76 -23 -6
-8 -16 -15 -22 -15 -6 0 -46 -29 -89 -65 -43 -36 -86 -65 -95 -65 -10 0 -26
-9 -35 -20 -10 -11 -23 -20 -29 -20 -7 0 -34 -16 -62 -35 -28 -19 -62 -37 -75
-41 -14 -3 -28 -12 -30 -18 -3 -7 -19 -16 -35 -19 -16 -3 -43 -17 -60 -31 -16
-15 -35 -26 -42 -26 -6 0 -40 -19 -73 -42 -34 -23 -64 -44 -66 -45 -10 -7 27
-58 54 -75 55 -33 119 -17 211 54 33 25 69 49 80 52 12 4 33 24 47 45 21 31
37 42 79 55 29 8 87 35 128 59 41 24 105 60 142 80 37 21 70 42 73 47 3 5 -4
27 -16 50 -16 30 -19 44 -11 52 16 16 42 -8 42 -38 0 -12 4 -25 8 -28 12 -7
76 37 144 100 33 30 77 59 105 69 88 31 122 48 140 67 10 11 31 27 48 35 16 9
48 30 70 48 22 18 50 36 62 39 12 4 25 16 28 26 3 11 18 29 33 40 l27 21 16
-20 c16 -20 16 -20 27 5 9 17 20 24 41 24 16 0 34 6 40 14 7 8 38 26 69 41 31
15 81 45 110 67 29 22 70 46 90 55 20 8 48 25 62 38 14 12 37 25 53 29 15 3
27 13 27 20 0 8 13 17 29 21 16 3 36 16 44 28 8 13 34 27 61 35 25 6 54 21 64
33 9 11 34 29 55 40 20 11 37 21 37 23 0 3 3 12 7 22 6 15 0 16 -47 12 -53 -5
-54 -5 -32 13 22 17 25 17 89 -2 71 -20 101 -13 63 14 -22 15 -20 16 39 23 38
4 73 15 91 28 95 70 130 102 130 119 0 18 -5 19 -61 13 l-62 -7 5 26 c9 45
-11 37 -47 -20 -37 -57 -46 -62 -89 -45 -31 11 -34 30 -6 37 25 7 25 23 -1 67
-27 46 -22 76 16 96 16 8 34 21 40 28 15 18 37 7 57 -28 19 -34 48 -40 48 -10
0 11 5 20 12 20 6 0 1 11 -11 24 -23 24 -21 46 2 46 7 0 26 -26 42 -58z
m-2570 2 c9 -4 25 -25 37 -48 11 -22 30 -51 42 -64 11 -13 39 -58 61 -100 34
-65 44 -78 67 -80 22 -3 30 2 38 22 5 14 14 26 19 26 5 0 14 12 19 28 8 23 11
25 17 9 4 -10 3 -28 -3 -40 -29 -61 -34 -152 -9 -190 l18 -27 29 22 c36 27 88
28 106 3 21 -28 17 -35 -15 -29 -38 8 -71 -11 -71 -40 0 -12 18 -47 40 -76 22
-29 40 -59 40 -65 0 -7 9 -20 20 -30 25 -23 25 -26 -1 -59 -26 -33 -41 -26
-94 48 -22 30 -50 61 -62 67 -14 7 -25 25 -29 45 -3 18 -17 43 -30 55 -14 13
-34 43 -45 68 -21 49 -89 153 -125 191 -12 14 -26 39 -30 55 -4 17 -16 39 -27
49 -32 31 -62 110 -58 154 1 13 20 16 46 6z m2775 -45 c0 -20 -15 -26 -25 -9
-9 15 3 43 15 35 5 -3 10 -15 10 -26z m-743 -151 c-1 -17 4 -23 27 -28 36 -6
51 -29 43 -62 -10 -38 -35 -43 -48 -10 -5 15 -24 39 -41 53 -27 22 -29 28 -19
47 16 29 41 29 38 0z m-5122 -13 c0 -26 -37 -32 -55 -10 -12 14 -11 18 1 26
23 15 54 6 54 -16z m5085 -110 c-12 -15 -30 -12 -30 6 0 5 10 9 21 9 18 0 19
-2 9 -15z m-5105 -45 c10 -16 -43 -36 -58 -21 -9 9 -9 14 3 21 20 13 47 13 55
0z m4845 -51 c0 -18 -2 -19 -15 -9 -8 7 -15 16 -15 21 0 5 7 9 15 9 9 0 15 -9
15 -21z m251 5 c14 -13 16 -21 8 -35 -5 -11 -14 -19 -20 -19 -12 0 -28 41 -22
58 7 16 13 15 34 -4z m-5283 -33 c20 -10 54 -21 76 -25 44 -8 44 -3 -3 -136
-16 -46 -38 -90 -47 -97 -28 -21 -84 -33 -148 -33 l-59 0 7 66 c12 120 35 150
125 163 53 7 66 31 26 49 -14 6 -25 16 -25 22 0 14 5 13 48 -9z m362 -153 c0
-6 -6 -19 -14 -27 -9 -11 -16 -58 -20 -142 -8 -144 -7 -148 72 -157 56 -6 84
-22 56 -32 -17 -6 -17 -8 4 -19 19 -10 28 -10 47 3 22 14 25 14 39 0 18 -18
29 -54 24 -80 -6 -31 -23 -25 -37 11 -7 19 -17 35 -22 35 -11 0 -11 -3 6 -75
23 -96 24 -95 -60 -140 -61 -32 -86 -40 -129 -40 -71 0 -86 14 -86 82 0 75 20
117 72 148 49 31 68 52 68 74 -1 13 -2 13 -11 -1 -11 -20 -75 -25 -81 -7 -5
16 -55 0 -80 -26 -12 -13 -28 -21 -35 -18 -8 3 -13 -3 -13 -19 0 -35 -20 -52
-39 -33 -9 8 -27 23 -40 34 -20 15 -25 29 -28 77 -4 52 -1 64 26 106 35 54 96
99 149 107 30 5 37 11 42 36 12 55 51 115 77 115 7 0 13 -5 13 -12z m4288 0
c-6 -18 -28 -21 -28 -4 0 9 7 16 16 16 9 0 14 -5 12 -12z m-53 -97 c7 -12 -35
-42 -47 -35 -5 3 -2 15 8 25 19 21 30 24 39 10z m-115 -70 c0 -6 -10 -17 -22
-25 -27 -19 -48 -5 -28 19 14 16 50 21 50 6z m-3956 -134 c17 -27 -1 -31 -69
-12 -68 18 -79 31 -45 53 11 7 20 19 20 28 0 12 11 8 42 -18 23 -19 46 -42 52
-51z m3164 19 c-4 -25 -36 -34 -44 -12 -8 21 13 46 32 39 8 -3 14 -15 12 -27z
m237 8 c0 -12 -8 -20 -22 -22 -25 -4 -31 16 -11 36 17 17 33 10 33 -14z m425
17 c0 -12 -20 -25 -27 -18 -7 7 6 27 18 27 5 0 9 -4 9 -9z m-46 -60 c3 -5 -2
-19 -13 -32 l-18 -23 -12 22 c-7 12 -9 27 -6 32 8 12 42 13 49 1z m-496 -73
c-4 -29 -38 -38 -38 -10 0 22 8 32 27 32 9 0 13 -8 11 -22z m2855 -45 c-7 -2
-19 -2 -25 0 -7 3 -2 5 12 5 14 0 19 -2 13 -5z m-3053 -35 c0 -14 -50 -41 -58
-33 -8 8 29 45 45 45 7 0 13 -6 13 -12z m-3420 -49 c0 -18 -2 -19 -15 -9 -8 7
-15 16 -15 21 0 5 7 9 15 9 9 0 15 -9 15 -21z m415 -62 c0 -26 -20 -25 -23 2
-3 16 1 22 10 19 7 -3 13 -12 13 -21z m6205 -64 c0 -22 -22 -26 -34 -7 -15 25
-26 76 -19 88 6 10 53 -62 53 -81z m-3500 -9 c0 -21 -4 -33 -10 -29 -17 10
-11 65 7 65 2 0 3 -16 3 -36z m3591 -13 c16 -13 21 -23 14 -29 -16 -15 -55 4
-55 28 0 25 11 25 41 1z m-3921 -191 c21 -21 23 -29 14 -54 -9 -23 -32 -20
-40 6 -4 13 -14 28 -22 34 -17 12 -8 34 14 34 8 0 23 -9 34 -20z m3989 -83
c19 -51 10 -67 -39 -67 -49 0 -65 24 -33 50 11 9 24 26 28 39 9 30 27 22 44
-22z m-4529 -202 c0 -8 -7 -15 -15 -15 -16 0 -20 12 -8 23 11 12 23 8 23 -8z
m-22 -52 c-4 -22 -22 -20 -26 1 -2 10 3 16 13 16 10 0 15 -7 13 -17z m-206
-158 c-2 -11 -9 -26 -15 -33 -8 -11 -13 -8 -24 13 -17 31 -9 47 20 43 16 -2
21 -9 19 -23z m4119 -74 c34 -35 35 -42 9 -66 -11 -10 -20 -26 -20 -36 0 -10
-4 -20 -9 -24 -12 -7 -31 26 -31 54 0 21 -27 55 -51 63 -7 2 -10 11 -6 21 11
29 73 22 108 -12z m-91 -56 c0 -8 -7 -15 -15 -15 -16 0 -20 12 -8 23 11 12 23
8 23 -8z m-5140 -559 c0 -8 -7 -16 -15 -20 -15 -5 -21 14 -8 27 11 12 23 8 23
-7z m4212 -13 c22 -20 23 -49 2 -57 -27 -10 -44 -7 -44 9 0 8 -8 15 -18 15
-30 0 -33 11 -9 31 28 23 45 24 69 2z m-1064 -494 c4 -21 -26 -33 -44 -18 -11
9 -12 15 -3 26 15 18 43 13 47 -8z m183 -29 c21 -17 22 -19 6 -20 -18 0 -77
27 -77 35 0 13 51 3 71 -15z m-3441 -35 c0 -8 -4 -17 -10 -20 -6 -4 -10 5 -10
20 0 15 4 24 10 20 6 -3 10 -12 10 -20z m-810 -91 c11 -12 11 -18 -2 -31 -26
-26 -81 7 -62 38 9 15 50 10 64 -7z m-59 -54 c19 -11 24 -35 13 -64 -8 -20
-24 -21 -24 -2 0 8 -9 18 -20 21 -26 8 -52 34 -45 46 8 12 52 11 76 -1z m4188
-55 c13 -12 12 -15 -3 -21 -12 -5 -22 -1 -28 9 -5 10 -15 17 -23 17 -8 0 -17
5 -21 12 -10 16 57 2 75 -17z m-4006 -9 c12 -8 53 -16 90 -19 62 -4 73 -9 105
-39 21 -20 45 -38 55 -41 9 -4 17 -11 17 -18 0 -6 -7 -9 -15 -5 -30 11 -7 -66
38 -126 14 -18 48 -76 78 -128 29 -52 105 -179 170 -281 65 -102 133 -215 153
-250 41 -74 101 -149 121 -149 16 0 25 -22 25 -60 0 -15 8 -34 17 -41 25 -21
83 -153 97 -223 8 -34 20 -76 29 -92 9 -17 17 -44 19 -60 3 -26 0 -29 -29 -32
-33 -3 -33 -3 -33 41 0 25 -6 49 -12 54 -7 5 -51 27 -98 48 -47 21 -100 45
-119 54 -39 18 -101 93 -136 162 -13 25 -31 49 -40 52 -8 4 -15 12 -15 20 0
19 -56 70 -69 63 -6 -4 -11 -17 -11 -30 0 -12 -7 -31 -15 -42 -14 -18 -14 -17
-15 15 0 19 5 49 12 67 17 47 -3 106 -84 242 -82 138 -126 194 -179 228 -33
20 -37 27 -28 42 13 20 -17 95 -76 192 -19 32 -35 65 -35 74 0 22 -12 20 -33
-4 -20 -24 -30 -25 -46 -6 -9 10 -8 16 4 26 21 17 19 33 -15 130 -16 47 -30
93 -30 102 0 42 59 62 103 34z m324 -2 c8 -21 -13 -42 -28 -27 -13 13 -5 43
11 43 6 0 13 -7 17 -16z m3253 -134 c0 -11 -48 -25 -56 -17 -4 3 -3 10 1 16 8
14 55 14 55 1z m-6 -73 c8 -12 7 -20 -2 -29 -11 -11 -16 -9 -30 8 -9 12 -26
24 -37 28 -15 5 -16 9 -6 15 18 12 62 -1 75 -22z m-3686 -33 c-10 -10 -28 6
-28 24 0 15 1 15 17 -1 9 -9 14 -19 11 -23z m3292 -165 c0 -5 -7 -9 -15 -9 -9
0 -15 9 -15 21 0 18 2 19 15 9 8 -7 15 -16 15 -21z m114 22 c3 -5 -1 -12 -10
-15 -20 -8 -29 -1 -19 13 8 13 22 14 29 2z m-304 -168 c0 -13 -3 -13 -15 -3
-8 7 -12 16 -9 21 8 13 24 1 24 -18z m-2926 -29 c17 -6 22 -24 8 -24 -5 0 -17
7 -28 15 -19 15 -8 20 20 9z m2890 0 c24 -9 19 -24 -8 -24 -26 0 -40 12 -29
24 8 8 17 8 37 0z m-2229 -105 c-4 -5 -13 -9 -22 -9 -13 0 -13 3 -3 15 13 15
35 11 25 -6z m2130 -39 c8 -13 -13 -40 -31 -40 -14 0 -19 31 -7 43 10 10 31 8
38 -3z m-2075 -125 c0 -8 -7 -15 -15 -15 -8 0 -15 7 -15 15 0 8 7 15 15 15 8
0 15 -7 15 -15z m1560 -102 c0 -13 -3 -13 -15 -3 -8 7 -12 16 -9 21 8 13 24 1
24 -18z m-1960 -7 c0 -8 -4 -17 -9 -21 -12 -7 -24 12 -16 25 9 15 25 12 25 -4z
m1848 -2 c12 -8 22 -21 22 -27 1 -30 16 -38 45 -23 29 15 66 9 73 -14 3 -9 -2
-11 -21 -6 -17 4 -27 1 -30 -9 -18 -46 -165 -65 -215 -28 -36 27 -36 57 0 61
34 4 68 -14 68 -35 0 -13 3 -13 15 -3 21 17 19 43 -5 65 -36 33 5 49 48 19z
m-1159 -329 c11 -11 10 -15 -9 -25 -38 -20 -90 16 -63 44 10 10 55 -2 72 -19z
m336 -155 c3 -5 -1 -10 -9 -10 -9 0 -16 5 -16 10 0 6 4 10 9 10 6 0 13 -4 16
-10z m-113 -61 c-3 -38 -7 -44 -21 -34 -12 7 -15 58 -4 69 15 15 28 -3 25 -35z
m69 -65 c11 -14 10 -18 -6 -30 -25 -18 -44 -18 -51 1 -7 17 12 45 31 45 7 0
19 -7 26 -16z"/>
<path d="M1213 11590 c-13 -5 -23 -13 -23 -18 0 -4 -16 -16 -35 -25 -41 -20
-47 -47 -10 -47 36 0 80 25 104 58 28 40 14 52 -36 32z"/>
<path d="M7504 11006 c-3 -8 -20 -20 -37 -27 -18 -7 -41 -20 -52 -29 -11 -10
-37 -23 -58 -30 -20 -6 -42 -20 -47 -31 -6 -10 -17 -19 -24 -19 -15 0 -86 -74
-86 -89 0 -19 21 -23 38 -8 9 9 39 25 65 36 27 12 68 37 92 57 24 19 59 39 77
44 39 11 114 83 104 99 -10 16 -66 13 -72 -3z"/>
<path d="M7099 10745 c-28 -15 -43 -40 -34 -55 7 -11 31 -3 68 22 52 37 23 64
-34 33z"/>
<path d="M7565 10755 c-5 -2 -22 -6 -36 -9 -15 -3 -29 -15 -32 -26 -3 -13 -13
-20 -31 -20 -15 0 -52 -21 -92 -51 -37 -28 -77 -54 -88 -59 -12 -4 -45 -24
-75 -44 -29 -20 -59 -36 -66 -36 -7 0 -15 -6 -18 -14 -3 -8 -26 -24 -51 -35
-25 -11 -46 -25 -46 -30 0 -6 -8 -11 -17 -11 -10 0 -44 -18 -77 -40 -32 -22
-65 -40 -72 -40 -8 0 -14 -6 -14 -14 0 -8 -20 -22 -44 -31 -25 -10 -55 -28
-67 -41 -12 -13 -33 -24 -45 -24 -12 0 -29 -6 -36 -13 -23 -22 -212 -144 -236
-151 -12 -4 -26 -15 -32 -25 -5 -10 -22 -21 -37 -24 -16 -3 -83 -52 -151 -110
-117 -99 -127 -105 -205 -126 -54 -15 -96 -34 -122 -55 -22 -18 -80 -58 -129
-90 -91 -59 -196 -143 -196 -158 0 -11 45 10 107 49 29 18 65 36 79 39 15 4
50 26 79 50 29 23 66 49 82 57 16 9 35 23 42 31 8 9 20 16 29 16 8 0 29 10 46
23 17 13 58 39 91 57 33 19 95 58 137 86 42 29 102 61 133 70 40 13 79 37 136
85 58 50 90 69 119 74 27 5 46 15 57 31 8 13 21 24 28 24 7 0 39 18 71 40 33
22 65 40 72 40 7 0 38 20 69 45 30 25 60 45 66 45 7 0 41 18 77 40 36 22 73
40 83 40 9 0 17 7 17 15 0 8 15 21 34 30 18 9 44 27 57 41 12 13 30 24 39 24
9 0 25 9 34 19 10 11 40 25 68 31 27 7 52 19 55 27 3 7 21 20 39 28 19 8 39
25 45 39 6 13 22 27 34 30 24 6 39 31 29 47 -5 9 -20 10 -39 4z"/>
<path d="M6956 10665 c-3 -9 -22 -23 -43 -31 -20 -9 -51 -27 -68 -40 -18 -13
-39 -24 -48 -24 -9 0 -24 -11 -33 -25 -9 -14 -27 -28 -40 -31 -12 -3 -30 -17
-39 -31 -14 -20 -23 -24 -57 -21 -39 3 -42 1 -49 -27 -6 -20 -21 -37 -45 -50
-42 -23 -49 -39 -17 -43 13 -2 33 8 52 27 18 17 40 31 50 31 10 0 34 10 53 23
18 13 48 29 66 35 17 6 52 25 76 41 25 17 50 31 57 31 28 0 159 116 159 141 0
16 -68 10 -74 -6z"/>
<path d="M7977 10666 c-3 -8 -29 -22 -57 -31 -28 -9 -54 -23 -57 -31 -3 -8 -9
-14 -14 -14 -21 0 -98 -43 -143 -80 -26 -22 -65 -45 -87 -51 -21 -7 -39 -16
-39 -21 0 -5 -20 -18 -44 -28 -24 -11 -49 -27 -56 -35 -7 -8 -18 -15 -24 -15
-7 0 -40 -18 -75 -41 -49 -32 -62 -45 -59 -62 3 -19 9 -22 45 -21 35 0 55 11
123 62 45 34 88 62 96 62 7 0 21 9 31 19 10 11 43 29 75 41 31 11 62 28 69 36
20 24 96 74 113 74 8 0 20 9 26 20 6 11 17 20 24 20 19 0 106 79 106 96 0 18
-46 18 -53 0z"/>
<path d="M8153 10447 c-4 -8 -24 -22 -43 -32 -19 -10 -46 -26 -59 -36 -13 -11
-34 -19 -48 -19 -13 0 -38 -13 -56 -30 -47 -44 -106 -81 -154 -97 -24 -8 -43
-18 -43 -23 0 -4 -18 -15 -39 -24 -22 -8 -42 -23 -45 -33 -3 -10 -23 -26 -44
-36 -72 -35 -120 -62 -138 -78 -11 -9 -29 -20 -42 -23 -27 -9 -48 -44 -34 -58
12 -12 75 6 92 28 7 7 18 14 25 14 7 0 36 16 65 35 29 19 63 38 75 41 13 3 26
12 29 19 2 7 28 21 56 30 28 9 54 23 56 30 3 7 25 20 49 29 24 10 51 28 59 42
9 13 25 24 36 24 10 0 23 6 27 14 4 8 24 20 43 28 51 22 160 115 160 138 0 24
-16 34 -27 17z"/>
<path d="M6406 10325 c-16 -8 -44 -28 -62 -45 -19 -16 -58 -45 -88 -64 -66
-42 -86 -71 -55 -79 15 -4 23 0 26 13 3 10 18 20 35 24 73 14 217 119 205 149
-8 21 -23 21 -61 2z"/>
<path d="M6052 10102 c-103 -65 -327 -226 -337 -242 -14 -23 45 -8 95 24 30
19 98 61 150 92 173 105 190 118 190 139 0 24 -51 17 -98 -13z"/>
<path d="M8115 10095 c-37 -19 -94 -54 -129 -79 -34 -24 -77 -50 -96 -58 -19
-8 -41 -22 -48 -31 -8 -9 -30 -21 -50 -28 -20 -6 -79 -41 -131 -76 -53 -35
-124 -78 -159 -94 -95 -46 -120 -99 -46 -99 24 0 41 7 56 25 12 14 30 25 39
25 10 0 23 9 29 20 6 11 18 20 27 20 8 0 37 15 63 34 26 18 56 37 68 40 12 4
43 25 69 47 26 22 62 43 80 48 18 5 47 20 65 33 56 41 161 94 201 103 15 3 27
11 27 18 0 6 14 20 30 29 18 10 30 25 30 38 0 31 -48 26 -125 -15z"/>
<path d="M5614 9816 c-3 -8 -19 -18 -36 -22 -17 -3 -46 -21 -65 -40 -18 -19
-42 -34 -53 -34 -11 0 -27 -11 -36 -25 -9 -14 -33 -29 -53 -35 -20 -5 -56 -26
-81 -45 -69 -55 -142 -104 -172 -117 -15 -7 -29 -20 -31 -30 -3 -11 -14 -18
-31 -18 -15 0 -30 -8 -36 -19 -5 -11 -31 -27 -57 -37 -27 -9 -57 -25 -68 -34
-11 -10 -37 -23 -58 -30 -20 -6 -67 -36 -103 -66 -37 -30 -74 -54 -84 -54 -9
0 -27 -9 -40 -20 -12 -11 -56 -40 -96 -65 -41 -26 -74 -51 -74 -56 0 -5 -8 -9
-18 -9 -10 0 -31 -13 -47 -30 -16 -16 -35 -30 -42 -30 -22 0 -67 -26 -138 -80
-36 -27 -72 -50 -79 -50 -7 0 -25 -13 -41 -30 -16 -16 -39 -30 -51 -30 -12 0
-27 -7 -34 -14 -6 -8 -33 -22 -60 -31 -27 -9 -71 -33 -97 -54 -26 -21 -68 -48
-93 -61 -25 -12 -64 -37 -86 -56 -23 -18 -54 -39 -70 -46 -16 -7 -51 -27 -78
-45 -26 -18 -54 -33 -61 -33 -7 0 -15 -9 -18 -20 -3 -13 -14 -20 -30 -20 -14
0 -32 -9 -40 -20 -7 -11 -33 -27 -57 -35 -24 -9 -51 -22 -60 -30 -8 -7 -36
-22 -61 -33 -42 -18 -99 -71 -99 -93 0 -14 46 -10 60 5 6 8 33 22 60 31 26 9
51 22 53 29 3 7 31 27 61 45 31 17 66 43 78 56 12 14 28 25 35 25 8 0 25 12
38 26 13 14 42 30 64 35 23 5 70 29 106 54 36 24 83 50 106 56 22 7 44 21 50
30 5 10 27 24 49 30 22 7 65 34 97 60 31 27 76 56 100 65 24 9 43 21 43 26 0
4 17 16 38 25 20 10 66 38 102 64 36 25 80 51 98 57 18 6 70 40 115 74 108 83
132 98 158 98 12 0 23 8 26 20 4 13 14 20 30 20 13 0 34 11 46 24 13 14 43 32
67 42 25 9 50 23 55 29 6 7 26 19 45 27 19 8 66 38 103 66 37 29 79 55 92 58
14 3 25 10 25 15 0 5 16 15 35 23 19 8 38 22 41 30 3 8 27 23 52 32 26 10 60
28 75 41 16 13 35 23 42 23 7 0 26 14 42 30 15 17 33 30 40 30 7 0 24 11 39
25 15 14 33 25 40 25 7 0 26 11 42 25 17 14 37 25 45 25 26 0 101 74 94 93 -8
21 -46 22 -53 3z"/>
<path d="M5331 9375 c-40 -30 -81 -55 -91 -55 -10 0 -20 -7 -24 -15 -3 -9 -27
-25 -53 -36 -26 -11 -65 -35 -88 -53 -22 -18 -59 -43 -82 -55 -24 -12 -43 -25
-43 -30 0 -5 -22 -17 -50 -26 -27 -9 -50 -22 -50 -29 0 -6 -16 -20 -35 -30
-19 -11 -35 -23 -35 -27 0 -5 -24 -16 -54 -24 -60 -18 -96 -42 -206 -139 -61
-54 -88 -70 -144 -88 -39 -11 -80 -32 -92 -45 -12 -12 -25 -23 -29 -23 -4 0
-41 -25 -82 -55 l-76 -55 37 0 c41 0 66 11 109 46 16 13 37 24 48 24 10 0 27
9 37 21 9 11 35 30 57 41 22 12 69 40 104 64 35 24 69 44 76 44 7 0 18 7 26
16 7 8 33 26 58 39 25 13 72 44 105 69 32 25 64 46 71 46 7 0 35 18 61 40 27
22 69 48 94 57 25 9 54 25 66 35 11 10 27 18 35 18 8 0 43 18 79 40 36 22 70
40 75 40 6 0 16 9 23 20 7 12 24 25 37 30 14 5 25 15 25 22 0 7 17 21 38 31
120 56 155 97 84 97 -31 0 -52 -11 -111 -55z"/>
<path d="M3821 8116 c-6 -7 -33 -21 -59 -31 -26 -10 -50 -24 -54 -30 -4 -7
-28 -18 -53 -25 -25 -7 -52 -21 -59 -31 -7 -10 -64 -47 -127 -83 -63 -35 -123
-73 -134 -84 -11 -10 -35 -27 -54 -36 -37 -20 -121 -94 -121 -107 0 -29 119
21 183 76 43 37 169 105 193 105 8 0 14 5 14 10 0 6 20 19 44 30 24 10 48 25
53 33 4 9 37 32 73 52 36 19 72 44 81 55 9 10 28 22 43 26 28 7 33 23 14 42
-15 15 -23 15 -37 -2z"/>
<path d="M11291 4460 c-41 -21 -86 -50 -100 -64 -14 -13 -51 -36 -83 -49 -31
-14 -61 -34 -67 -46 -8 -15 -25 -22 -61 -27 -28 -4 -50 -11 -50 -16 0 -5 -20
-18 -45 -29 -25 -11 -45 -24 -45 -30 0 -5 -24 -20 -53 -33 -30 -13 -57 -30
-60 -39 -3 -8 -19 -18 -36 -22 -17 -4 -57 -26 -89 -50 -31 -23 -76 -48 -98
-54 -23 -6 -58 -25 -79 -41 -21 -17 -48 -30 -60 -30 -13 0 -25 -6 -28 -14 -6
-15 -160 -96 -183 -96 -8 0 -14 -7 -14 -15 0 -9 -11 -20 -24 -25 -13 -5 -39
-22 -57 -38 -19 -16 -46 -32 -60 -35 -15 -4 -48 -25 -75 -47 -27 -22 -70 -47
-96 -56 -26 -8 -51 -20 -54 -26 -3 -5 -27 -18 -52 -29 -24 -11 -66 -36 -91
-57 -41 -34 -143 -97 -283 -176 -60 -34 -110 -75 -102 -87 8 -14 51 -11 57 5
3 8 28 21 55 30 30 10 57 27 66 42 9 13 25 24 36 24 10 0 23 6 27 14 4 7 27
23 50 35 23 11 44 25 47 30 3 5 21 12 41 15 19 4 39 14 44 24 10 18 52 45 146
91 33 17 74 39 90 50 17 12 40 21 52 21 12 0 30 8 40 19 10 10 38 29 62 41 24
12 66 40 93 61 28 21 56 39 63 39 7 0 26 11 42 24 15 13 51 30 78 38 28 8 80
37 118 66 37 29 76 52 87 52 10 0 31 11 47 24 15 13 43 31 61 40 19 10 53 32
77 51 25 18 57 36 73 40 16 3 39 17 50 30 12 13 40 29 62 36 23 7 45 19 48 27
6 17 157 92 184 92 10 0 21 6 24 14 3 8 24 22 46 31 23 9 42 24 45 35 3 11 14
20 24 20 23 0 99 71 99 93 0 23 -5 22 -89 -23z"/>
<path d="M9705 3811 c-3 -5 -30 -19 -59 -30 -57 -21 -280 -142 -307 -167 -8
-8 -21 -14 -27 -14 -6 0 -42 -26 -81 -57 -38 -32 -77 -63 -87 -69 -16 -10 -17
-14 -6 -25 11 -12 15 -11 26 3 15 20 124 79 180 98 21 7 46 19 55 27 25 22
148 93 163 93 20 0 168 120 168 136 0 16 -16 19 -25 5z"/>
<path d="M8590 3525 c-7 -8 -31 -24 -54 -36 -80 -39 -154 -85 -198 -121 -25
-21 -49 -38 -53 -38 -4 0 -28 -15 -54 -33 -25 -18 -58 -38 -73 -44 -14 -6 -34
-26 -45 -43 -14 -24 -23 -30 -41 -27 -17 3 -37 -7 -70 -36 -49 -42 -98 -67
-131 -67 -10 0 -21 -6 -24 -14 -3 -7 -23 -16 -45 -20 -52 -8 -98 -53 -115
-114 -11 -35 -19 -48 -35 -50 -15 -2 -22 2 -22 12 0 11 -9 16 -30 16 -20 0
-30 -5 -30 -15 0 -8 -11 -17 -25 -21 -14 -3 -44 -21 -67 -40 -24 -19 -50 -34
-59 -34 -9 0 -19 -8 -22 -18 -2 -11 -17 -21 -35 -25 -17 -3 -45 -19 -64 -35
-18 -16 -41 -31 -50 -35 -10 -4 -18 -13 -18 -20 0 -8 -12 -17 -27 -20 -16 -3
-59 -28 -96 -56 -37 -27 -73 -52 -80 -55 -9 -5 -9 -7 1 -12 19 -9 14 -31 -10
-48 -30 -21 -41 -20 -33 3 9 31 -10 33 -49 6 -20 -14 -40 -25 -44 -25 -4 0
-40 -25 -80 -55 -40 -30 -82 -55 -93 -55 -10 0 -27 -8 -37 -17 -9 -10 -30 -24
-45 -30 -15 -7 -40 -34 -56 -60 -16 -27 -39 -63 -50 -80 -11 -18 -15 -33 -10
-33 6 0 17 -7 25 -15 38 -38 234 53 234 109 0 17 -7 26 -26 30 -14 4 -24 12
-21 19 6 20 43 19 83 -2 49 -27 84 -27 91 -2 3 11 14 21 25 24 11 3 22 15 25
26 3 11 15 23 27 27 11 4 43 22 71 40 27 19 57 34 65 34 20 1 43 19 65 54 13
19 45 41 93 63 41 18 99 51 130 73 30 22 64 40 75 40 12 0 53 25 92 55 40 30
80 55 89 55 9 0 25 19 38 45 19 38 27 46 57 50 20 4 45 8 57 10 31 7 88 48 99
73 6 15 24 26 50 33 76 19 103 30 115 45 7 7 18 14 26 14 27 0 42 28 37 70 -6
44 6 53 29 19 12 -19 17 -20 37 -10 17 10 22 19 18 37 -4 21 0 24 24 24 16 0
29 4 29 10 0 5 15 12 34 16 19 3 45 17 58 31 12 14 38 31 57 39 19 8 39 20 45
28 6 7 32 21 58 30 25 9 54 28 62 42 9 13 23 24 30 24 8 0 29 12 46 27 24 20
30 31 25 47 -4 12 -7 28 -7 36 0 8 -5 21 -11 28 -13 17 -72 15 -87 -3z m38
-69 c3 -12 -1 -17 -10 -14 -7 3 -15 13 -16 22 -3 12 1 17 10 14 7 -3 15 -13
16 -22z m-333 -212 c0 -12 -8 -20 -22 -22 -25 -4 -31 16 -11 36 17 17 33 10
33 -14z m-990 -623 c3 -5 1 -12 -5 -16 -13 -8 -50 3 -50 16 0 12 47 12 55 0z"/>
<path d="M9025 3427 c-62 -25 -153 -77 -195 -112 -24 -20 -57 -43 -74 -52 -17
-9 -35 -22 -41 -29 -5 -6 -36 -19 -67 -28 -31 -9 -63 -24 -70 -35 -13 -18 -37
-33 -114 -71 -23 -11 -47 -27 -54 -35 -7 -8 -30 -20 -51 -26 -21 -7 -46 -20
-55 -31 -10 -10 -27 -18 -38 -18 -12 0 -48 -18 -81 -40 -33 -22 -66 -40 -72
-40 -7 0 -20 -11 -29 -25 -9 -14 -23 -25 -30 -25 -8 0 -23 -9 -34 -20 -11 -11
-38 -27 -60 -36 -22 -9 -40 -20 -40 -24 0 -4 -13 -13 -28 -18 -16 -5 -45 -24
-64 -41 -20 -17 -40 -31 -46 -31 -6 0 -18 -7 -27 -16 -8 -9 -59 -38 -113 -66
-53 -27 -121 -68 -150 -90 -29 -22 -69 -46 -88 -54 -18 -8 -34 -18 -34 -23 0
-5 -25 -19 -55 -31 -30 -12 -59 -28 -66 -36 -19 -23 20 -30 55 -9 17 10 51 29
76 43 25 13 49 30 53 38 4 8 18 14 30 14 12 0 45 15 72 33 28 19 82 51 120 72
39 21 72 42 75 46 3 4 27 17 53 28 26 11 47 25 47 30 0 5 23 17 50 26 28 9 50
23 50 30 0 7 15 18 34 25 18 6 41 19 50 29 9 10 37 24 62 31 25 7 48 20 51 28
3 7 26 23 50 33 25 10 64 35 87 54 23 19 58 41 78 49 19 8 40 21 46 29 7 8 34
22 60 32 26 10 52 23 57 29 6 6 23 17 38 24 15 6 51 30 80 52 29 21 78 50 109
64 31 14 59 30 62 35 4 6 26 19 49 30 23 11 49 25 57 30 8 5 29 15 47 21 44
17 155 119 128 119 -11 0 -33 -6 -50 -12z"/>
<path d="M9157 3206 c-26 -7 -55 -19 -65 -27 -9 -8 -29 -21 -44 -28 -33 -17
-74 -59 -65 -67 8 -8 114 24 122 36 4 6 21 16 38 24 37 16 98 76 76 75 -8 0
-35 -6 -62 -13z"/>
<path d="M8915 3066 c-11 -7 -35 -17 -53 -21 -18 -3 -58 -26 -90 -50 -32 -24
-98 -67 -147 -95 -50 -29 -92 -56 -95 -60 -3 -5 -28 -18 -55 -30 -27 -11 -78
-45 -115 -74 -70 -58 -154 -106 -183 -106 -10 0 -20 -6 -23 -14 -3 -8 -19 -19
-35 -25 -16 -5 -48 -23 -71 -39 -24 -16 -58 -33 -75 -36 -18 -4 -33 -12 -33
-17 0 -6 -17 -17 -37 -25 -21 -9 -49 -26 -63 -38 -35 -32 -192 -124 -224 -132
-15 -3 -34 -17 -43 -30 -9 -14 -25 -24 -38 -24 -13 0 -36 -11 -52 -24 -15 -13
-38 -26 -50 -30 -13 -4 -23 -12 -23 -17 0 -6 -15 -16 -32 -24 -18 -7 -66 -39
-107 -69 -41 -31 -80 -56 -87 -56 -7 0 -21 -9 -31 -19 -10 -11 -29 -21 -42
-23 -23 -3 -69 -64 -57 -75 8 -8 139 56 166 81 14 13 36 27 50 31 14 4 50 27
80 50 30 24 80 55 110 70 30 15 70 40 90 56 19 16 56 36 81 44 25 9 66 33 92
54 26 22 68 47 92 57 25 9 45 21 45 25 0 5 24 21 53 35 28 15 70 42 91 60 21
18 60 40 87 49 26 9 53 22 59 30 6 8 27 19 46 25 23 8 34 18 34 31 0 12 7 19
18 19 31 0 154 65 267 141 61 41 129 83 153 93 23 10 42 23 42 27 0 4 19 17
43 27 23 11 53 31 66 46 14 14 30 26 36 26 15 0 85 65 85 79 0 14 -1 14 -25
-3z"/>
<path d="M9166 2875 c-38 -34 -83 -55 -163 -75 -24 -6 -43 -15 -43 -20 0 -5
-16 -16 -35 -25 -20 -8 -50 -28 -67 -45 -34 -35 -117 -80 -146 -80 -11 0 -26
-7 -33 -17 -8 -9 -33 -25 -56 -35 -24 -10 -43 -25 -43 -33 0 -19 -58 -65 -83
-65 -12 0 -51 -18 -87 -40 -36 -22 -71 -40 -77 -40 -7 0 -13 -4 -13 -10 0 -5
-28 -23 -63 -38 -34 -16 -91 -50 -126 -75 -35 -26 -68 -47 -75 -47 -6 0 -19
-9 -29 -20 -9 -11 -24 -20 -32 -20 -8 0 -15 -4 -15 -10 0 -5 -21 -18 -47 -30
-59 -26 -113 -67 -113 -85 0 -8 -18 -20 -41 -26 -22 -7 -46 -20 -52 -29 -7 -9
-22 -22 -34 -29 -13 -6 -23 -18 -23 -27 0 -12 6 -11 38 4 20 11 49 22 65 26
15 3 27 13 27 22 0 9 17 22 40 31 22 9 40 19 40 23 0 4 43 29 96 56 52 27 116
66 141 87 26 21 60 41 76 44 17 4 32 14 34 25 3 10 12 18 21 18 8 0 47 25 87
55 39 30 94 62 121 72 27 9 62 27 77 40 16 12 34 23 42 23 7 0 18 7 25 14 6 8
33 23 58 32 26 10 51 24 55 31 4 7 25 22 45 32 20 11 45 29 54 40 10 12 28 21
41 21 12 0 39 11 58 24 20 14 48 28 63 32 15 3 42 26 62 49 23 28 46 45 67 49
45 9 111 57 115 84 5 30 -6 27 -52 -13z"/>
<path d="M9833 2614 c-3 -9 -24 -24 -47 -34 -23 -9 -72 -40 -109 -69 -38 -28
-79 -51 -91 -51 -29 0 -50 -24 -42 -46 9 -24 60 -11 101 25 19 16 47 32 64 36
17 3 33 15 36 25 3 10 21 24 40 30 45 15 115 67 115 85 0 21 -59 20 -67 -1z"/>
<path d="M9454 2385 c-4 -8 -12 -15 -19 -15 -7 0 -40 -18 -73 -40 -33 -22 -67
-40 -75 -40 -9 0 -21 -8 -26 -19 -6 -10 -21 -21 -33 -24 -13 -4 -48 -29 -78
-57 -52 -47 -53 -50 -25 -44 35 8 126 53 140 70 6 6 28 17 50 24 22 7 48 20
58 29 22 18 96 63 147 87 l35 17 -30 13 c-40 18 -64 17 -71 -1z"/>
<path d="M9341 2010 c-24 -17 -49 -30 -55 -31 -15 -1 -129 -92 -134 -107 -7
-23 43 -11 98 23 33 22 67 35 87 35 21 0 33 5 33 13 0 7 16 32 36 55 l36 42
-29 0 c-15 0 -48 -14 -72 -30z"/>
<path d="M6930 1874 c-36 -20 -76 -45 -89 -55 -13 -11 -31 -19 -41 -19 -9 0
-25 -9 -36 -21 -21 -24 -145 -89 -168 -89 -9 0 -25 -11 -38 -23 -13 -13 -43
-35 -68 -49 -25 -14 -54 -36 -65 -48 -16 -18 -17 -23 -5 -30 18 -11 51 -3 66
15 5 8 29 21 51 30 23 9 44 23 47 31 3 8 13 14 21 14 9 0 46 18 82 40 37 22
71 40 75 40 5 0 44 26 86 58 42 33 96 71 120 86 23 14 42 33 42 41 0 21 -7 19
-80 -21z"/>
<path d="M7487 1870 c-32 -10 -66 -25 -76 -34 -9 -8 -37 -22 -61 -31 -24 -8
-63 -31 -86 -51 -24 -19 -64 -44 -89 -55 -47 -21 -56 -38 -30 -59 18 -15 52
-5 65 20 5 10 31 25 57 34 26 9 67 33 93 55 25 21 64 48 88 60 23 12 42 25 42
30 0 5 14 14 30 21 17 7 30 16 30 21 0 5 -1 9 -2 8 -2 0 -29 -8 -61 -19z"/>
<path d="M6923 1205 c-28 -13 -60 -32 -72 -44 -11 -11 -34 -27 -51 -36 -33
-17 -36 -38 -6 -43 32 -7 61 7 125 58 34 27 69 50 77 50 20 0 17 17 -4 29 -14
7 -32 4 -69 -14z"/>
</g>
</svg>
